{
	"asset":{
		"generator":"Khronos glTF Blender I/O v5.0.21",
		"version":"2.0"
	},
	"scene":0,
	"scenes":[
		{
			"name":"Scene",
			"nodes":[
				0
			]
		}
	],
	"nodes":[
		{
			"mesh":0,
			"name":"Sphere"
		}
	],
	"materials":[
		{
			"doubleSided":true,
			"name":"Black_Matte",
			"pbrMetallicRoughness":{
				"baseColorFactor":[
					0,
					0,
					0,
					1
				],
				"metallicFactor":0
			}
		},
		{
			"doubleSided":true,
			"emissiveFactor":[
				1,
				0.03855901584029198,
				0.01705923303961754
			],
			"name":"Emission",
			"pbrMetallicRoughness":{
				"baseColorFactor":[
					0,
					0,
					0,
					1
				]
			}
		}
	],
	"meshes":[
		{
			"name":"Sphere.001",
			"primitives":[
				{
					"attributes":{
						"POSITION":0,
						"NORMAL":1,
						"TEXCOORD_0":2
					},
					"indices":3,
					"material":0
				},
				{
					"attributes":{
						"POSITION":4,
						"NORMAL":5,
						"TEXCOORD_0":6
					},
					"indices":7,
					"material":1
				}
			]
		}
	],
	"accessors":[
		{
			"bufferView":0,
			"componentType":5126,
			"count":2156,
			"max":[
				0.25038108229637146,
				0.5916566848754883,
				0.2581402063369751
			],
			"min":[
				-0.25294509530067444,
				-0.8867766857147217,
				-0.2535244822502136
			],
			"type":"VEC3"
		},
		{
			"bufferView":1,
			"componentType":5126,
			"count":2156,
			"type":"VEC3"
		},
		{
			"bufferView":2,
			"componentType":5126,
			"count":2156,
			"type":"VEC2"
		},
		{
			"bufferView":3,
			"componentType":5123,
			"count":8004,
			"type":"SCALAR"
		},
		{
			"bufferView":4,
			"componentType":5126,
			"count":96,
			"max":[
				0.054240740835666656,
				0.3984828591346741,
				0.16706585884094238
			],
			"min":[
				-0.06740714609622955,
				0.3612557649612427,
				0.1507606953382492
			],
			"type":"VEC3"
		},
		{
			"bufferView":5,
			"componentType":5126,
			"count":96,
			"type":"VEC3"
		},
		{
			"bufferView":6,
			"componentType":5126,
			"count":96,
			"type":"VEC2"
		},
		{
			"bufferView":7,
			"componentType":5123,
			"count":168,
			"type":"SCALAR"
		}
	],
	"bufferViews":[
		{
			"buffer":0,
			"byteLength":25872,
			"byteOffset":0,
			"target":34962
		},
		{
			"buffer":0,
			"byteLength":25872,
			"byteOffset":25872,
			"target":34962
		},
		{
			"buffer":0,
			"byteLength":17248,
			"byteOffset":51744,
			"target":34962
		},
		{
			"buffer":0,
			"byteLength":16008,
			"byteOffset":68992,
			"target":34963
		},
		{
			"buffer":0,
			"byteLength":1152,
			"byteOffset":85000,
			"target":34962
		},
		{
			"buffer":0,
			"byteLength":1152,
			"byteOffset":86152,
			"target":34962
		},
		{
			"buffer":0,
			"byteLength":768,
			"byteOffset":87304,
			"target":34962
		},
		{
			"buffer":0,
			"byteLength":336,
			"byteOffset":88072,
			"target":34963
		}
	],
	"buffers":[
		{
			"byteLength":88408,
			"uri":"hallway_ghost.bin"
		}
	]
}
