{
	"asset":{
		"generator":"Khronos glTF Blender I/O v5.0.21",
		"version":"2.0"
	},
	"scene":0,
	"scenes":[
		{
			"name":"Scene",
			"nodes":[
				0
			]
		}
	],
	"nodes":[
		{
			"mesh":0,
			"name":"COLLIDER_MESH",
			"translation":[
				-0.2832143306732178,
				0.616934061050415,
				-18.561307907104492
			]
		}
	],
	"meshes":[
		{
			"name":"Cube.011",
			"primitives":[
				{
					"attributes":{
						"POSITION":0,
						"NORMAL":1,
						"TEXCOORD_0":2
					},
					"indices":3
				}
			]
		}
	],
	"accessors":[
		{
			"bufferView":0,
			"componentType":5126,
			"count":709,
			"max":[
				5.698854446411133,
				2.1133193969726562,
				23.36988067626953
			],
			"min":[
				-5.132425308227539,
				-0.6094750165939331,
				-2.4604835510253906
			],
			"type":"VEC3"
		},
		{
			"bufferView":1,
			"componentType":5126,
			"count":709,
			"type":"VEC3"
		},
		{
			"bufferView":2,
			"componentType":5126,
			"count":709,
			"type":"VEC2"
		},
		{
			"bufferView":3,
			"componentType":5123,
			"count":1674,
			"type":"SCALAR"
		}
	],
	"bufferViews":[
		{
			"buffer":0,
			"byteLength":8508,
			"byteOffset":0,
			"target":34962
		},
		{
			"buffer":0,
			"byteLength":8508,
			"byteOffset":8508,
			"target":34962
		},
		{
			"buffer":0,
			"byteLength":5672,
			"byteOffset":17016,
			"target":34962
		},
		{
			"buffer":0,
			"byteLength":3348,
			"byteOffset":22688,
			"target":34963
		}
	],
	"buffers":[
		{
			"byteLength":26036,
			"uri":"hallway_collider_mesh.bin"
		}
	]
}
