{
	"asset":{
		"generator":"Khronos glTF Blender I/O v5.0.21",
		"version":"2.0"
	},
	"scene":0,
	"scenes":[
		{
			"name":"Scene",
			"nodes":[
				0,
				1,
				2,
				3,
				4,
				5,
				6,
				7,
				8,
				9,
				10,
				11,
				12,
				13,
				14,
				15,
				16,
				17,
				18,
				19,
				20,
				21,
				22,
				23,
				24,
				25,
				26,
				27,
				28,
				29,
				30,
				31,
				32,
				33,
				34,
				35,
				36,
				37,
				38,
				39,
				40,
				41,
				42,
				43,
				44,
				45,
				46,
				47,
				48,
				49,
				50,
				51,
				52,
				53,
				54,
				55,
				56,
				57,
				58,
				59,
				60,
				61,
				62,
				63,
				64,
				65,
				66,
				67,
				68,
				69,
				70
			]
		}
	],
	"nodes":[
		{
			"mesh":0,
			"name":"Mac_And_Cheese_Single.001",
			"rotation":[
				0,
				-0.23880372941493988,
				0,
				0.9710678458213806
			],
			"translation":[
				-2.3798930644989014,
				0,
				-0.43968698382377625
			]
		},
		{
			"mesh":0,
			"name":"Mac_And_Cheese_Single.002",
			"translation":[
				-2.421264886856079,
				0,
				0.2912167012691498
			]
		},
		{
			"mesh":0,
			"name":"Mac_And_Cheese_Single.003",
			"rotation":[
				0,
				0.8130508661270142,
				0,
				0.5821926593780518
			],
			"translation":[
				-3.087519407272339,
				0,
				-0.9120824337005615
			]
		},
		{
			"mesh":0,
			"name":"Mac_And_Cheese_Single.004",
			"rotation":[
				0,
				0.8740353584289551,
				0,
				0.48586228489875793
			],
			"translation":[
				-3.3728187084198,
				0,
				-0.1362929344177246
			]
		},
		{
			"mesh":0,
			"name":"Mac_And_Cheese_Single.005",
			"rotation":[
				0,
				-0.26050862669944763,
				0,
				0.9654715061187744
			],
			"translation":[
				-3.769805669784546,
				0,
				0.6469525098800659
			]
		},
		{
			"mesh":0,
			"name":"Mac_And_Cheese_Single.006",
			"rotation":[
				0,
				-0.42132264375686646,
				0,
				0.9069108366966248
			],
			"translation":[
				-4.537036895751953,
				0,
				-0.4437211751937866
			]
		},
		{
			"mesh":0,
			"name":"Mac_And_Cheese_Single.007",
			"rotation":[
				0,
				-0.223222553730011,
				0,
				0.9747675061225891
			],
			"translation":[
				-4.4554829597473145,
				0,
				0.12119174003601074
			]
		},
		{
			"mesh":0,
			"name":"Mac_And_Cheese_Single.008",
			"rotation":[
				0,
				0.3768163025379181,
				0,
				0.9262880086898804
			],
			"translation":[
				-5.712679862976074,
				0,
				-0.7139439582824707
			]
		},
		{
			"mesh":0,
			"name":"Mac_And_Cheese_Single.009",
			"rotation":[
				0,
				0.3448575735092163,
				0,
				0.9386550188064575
			],
			"translation":[
				-5.140121936798096,
				0,
				-0.10691845417022705
			]
		},
		{
			"mesh":0,
			"name":"Mac_And_Cheese_Single.010",
			"rotation":[
				0,
				0.4299057722091675,
				0,
				0.9028737545013428
			],
			"translation":[
				-3.6236412525177,
				0,
				-0.7878339886665344
			]
		},
		{
			"mesh":0,
			"name":"Mac_And_Cheese_Single.011",
			"rotation":[
				0,
				0.3768163025379181,
				0,
				0.9262880086898804
			],
			"translation":[
				-5.425591468811035,
				0,
				-0.666417121887207
			]
		},
		{
			"mesh":0,
			"name":"Mac_And_Cheese_Single.012",
			"rotation":[
				0,
				-0.5307337045669556,
				0,
				0.8475386500358582
			],
			"translation":[
				-3.904848575592041,
				0,
				-0.704570472240448
			]
		},
		{
			"mesh":0,
			"name":"Mac_And_Cheese_Single.013",
			"translation":[
				-3.310760974884033,
				0,
				0.2567400336265564
			]
		},
		{
			"mesh":0,
			"name":"Mac_And_Cheese_Single.014",
			"rotation":[
				0,
				-0.26050862669944763,
				0,
				0.9654715061187744
			],
			"translation":[
				-4.085978031158447,
				0,
				1.1490567922592163
			]
		},
		{
			"mesh":0,
			"name":"Mac_And_Cheese_Single.015",
			"rotation":[
				0,
				0.7652971148490906,
				0,
				0.6436771750450134
			],
			"translation":[
				-4.361627101898193,
				0,
				0.6643678545951843
			]
		},
		{
			"mesh":0,
			"name":"Mac_And_Cheese_Single.016",
			"rotation":[
				0,
				0.7652971148490906,
				0,
				0.6436771750450134
			],
			"translation":[
				-3.8668928146362305,
				0,
				0.7322924137115479
			]
		},
		{
			"mesh":0,
			"name":"Mac_And_Cheese_Single.017",
			"rotation":[
				0,
				0.3768163025379181,
				0,
				0.9262880086898804
			],
			"translation":[
				-4.91205358505249,
				0,
				0.7492954730987549
			]
		},
		{
			"mesh":0,
			"name":"Mac_And_Cheese_Single.018",
			"rotation":[
				0,
				0.4663374722003937,
				0,
				0.8846068978309631
			],
			"translation":[
				-4.351431369781494,
				0,
				0.9078121185302734
			]
		},
		{
			"mesh":0,
			"name":"Mac_And_Cheese_Single.019",
			"rotation":[
				0,
				-0.8572311997413635,
				0,
				0.5149317979812622
			],
			"translation":[
				-2.1385574340820312,
				0,
				0.8290514945983887
			]
		},
		{
			"mesh":0,
			"name":"Mac_And_Cheese_Single.020",
			"translation":[
				-2.2075107097625732,
				0,
				1.2358752489089966
			]
		},
		{
			"mesh":0,
			"name":"Mac_And_Cheese_Single.021",
			"translation":[
				-2.8211939334869385,
				0,
				0.9049000144004822
			]
		},
		{
			"mesh":0,
			"name":"Mac_And_Cheese_Single.022",
			"rotation":[
				0,
				-0.3278317451477051,
				0,
				0.944736123085022
			],
			"translation":[
				-1.1819511651992798,
				0,
				0.43926677107810974
			]
		},
		{
			"mesh":0,
			"name":"Mac_And_Cheese_Single.023",
			"rotation":[
				0,
				0.24748049676418304,
				0,
				0.9688928723335266
			],
			"translation":[
				-1.7657322883605957,
				0,
				0.36217767000198364
			]
		},
		{
			"mesh":0,
			"name":"Mac_And_Cheese_Single.024",
			"translation":[
				-1.4628164768218994,
				0,
				1.3462004661560059
			]
		},
		{
			"mesh":0,
			"name":"Mac_And_Cheese_Single.025",
			"translation":[
				-0.0423811674118042,
				0,
				1.0497018098831177
			]
		},
		{
			"mesh":0,
			"name":"Mac_And_Cheese_Single.026",
			"rotation":[
				0,
				0.5413433313369751,
				0,
				0.8408016562461853
			],
			"translation":[
				-1.015832543373108,
				0,
				0.6406052708625793
			]
		},
		{
			"mesh":0,
			"name":"Mac_And_Cheese_Single.027",
			"rotation":[
				0,
				0.760529637336731,
				0,
				0.6493031978607178
			],
			"translation":[
				-6.64775276184082,
				0,
				0.6651265621185303
			]
		},
		{
			"mesh":0,
			"name":"Mac_And_Cheese_Single.028",
			"rotation":[
				0,
				0.8790723085403442,
				0,
				0.4766886830329895
			],
			"translation":[
				-6.425403594970703,
				0,
				0.13944745063781738
			]
		},
		{
			"mesh":0,
			"name":"Mac_And_Cheese_Single.029",
			"rotation":[
				0,
				-0.9934415817260742,
				0,
				0.1143416240811348
			],
			"translation":[
				-5.781281471252441,
				0,
				1.504402756690979
			]
		},
		{
			"mesh":0,
			"name":"Mac_And_Cheese_Single.030",
			"rotation":[
				0,
				-0.9967759251594543,
				0,
				0.08023609220981598
			],
			"translation":[
				-5.957398414611816,
				0,
				0.688752293586731
			]
		},
		{
			"mesh":0,
			"name":"Mac_And_Cheese_Single.031",
			"rotation":[
				0,
				-0.9934415817260742,
				0,
				0.1143416240811348
			],
			"translation":[
				-6.002418518066406,
				0,
				1.3152542114257812
			]
		},
		{
			"mesh":0,
			"name":"Mac_And_Cheese_Single.032",
			"rotation":[
				0,
				0.8601086139678955,
				0,
				0.5101109743118286
			],
			"translation":[
				-6.21008825302124,
				0,
				-0.9313839673995972
			]
		},
		{
			"mesh":0,
			"name":"Mac_And_Cheese_Single.033",
			"rotation":[
				0,
				-0.825483500957489,
				0,
				0.5644262433052063
			],
			"translation":[
				-6.224824905395508,
				0,
				-0.3739893436431885
			]
		},
		{
			"mesh":0,
			"name":"Mac_And_Cheese_Single.034",
			"rotation":[
				0,
				-0.9934415817260742,
				0,
				0.1143416240811348
			],
			"translation":[
				-5.709799766540527,
				0,
				-0.16201943159103394
			]
		},
		{
			"mesh":0,
			"name":"Mac_And_Cheese_Single.035",
			"rotation":[
				0,
				-0.9773204922676086,
				0,
				0.21176563203334808
			],
			"translation":[
				-6.107651710510254,
				0,
				-0.5876233577728271
			]
		},
		{
			"mesh":0,
			"name":"Mac_And_Cheese_Single.036",
			"rotation":[
				0,
				0.9686919450759888,
				0,
				0.24826592206954956
			],
			"translation":[
				2.121419906616211,
				0,
				0.7167418003082275
			]
		},
		{
			"mesh":0,
			"name":"Mac_And_Cheese_Single.037",
			"rotation":[
				0,
				0.9991552829742432,
				0,
				0.04109412804245949
			],
			"translation":[
				1.8420850038528442,
				0,
				0.21899719536304474
			]
		},
		{
			"mesh":0,
			"name":"Mac_And_Cheese_Single.038",
			"rotation":[
				0,
				-0.841701090335846,
				0,
				0.5399438142776489
			],
			"translation":[
				3.3155601024627686,
				0,
				0.5459029674530029
			]
		},
		{
			"mesh":0,
			"name":"Mac_And_Cheese_Single.039",
			"rotation":[
				0,
				-0.8597068786621094,
				0,
				0.5107877254486084
			],
			"translation":[
				2.562948226928711,
				0,
				0.1855168342590332
			]
		},
		{
			"mesh":0,
			"name":"Mac_And_Cheese_Single.040",
			"rotation":[
				0,
				-0.841701090335846,
				0,
				0.5399438142776489
			],
			"translation":[
				3.0305962562561035,
				0,
				0.6048459410667419
			]
		},
		{
			"mesh":0,
			"name":"Mac_And_Cheese_Single.041",
			"rotation":[
				0,
				0.9968388080596924,
				0,
				0.07945173978805542
			],
			"translation":[
				1.1275218725204468,
				0,
				-0.6071021556854248
			]
		},
		{
			"mesh":0,
			"name":"Mac_And_Cheese_Single.042",
			"rotation":[
				0,
				-0.492778480052948,
				0,
				0.8701547980308533
			],
			"translation":[
				1.5590925216674805,
				0,
				-0.2540402412414551
			]
		},
		{
			"mesh":0,
			"name":"Mac_And_Cheese_Single.043",
			"rotation":[
				0,
				-0.841701090335846,
				0,
				0.5399438142776489
			],
			"translation":[
				2.042107105255127,
				0,
				-0.5313109755516052
			]
		},
		{
			"mesh":0,
			"name":"Mac_And_Cheese_Single.044",
			"rotation":[
				0,
				-0.7843433022499084,
				0,
				0.6203270554542542
			],
			"translation":[
				1.4619941711425781,
				0,
				-0.47751498222351074
			]
		},
		{
			"mesh":0,
			"name":"Mac_And_Cheese_Single.045",
			"rotation":[
				0,
				-0.9518402218818665,
				0,
				0.306594580411911
			],
			"translation":[
				2.941091775894165,
				0,
				1.0028692483901978
			]
		},
		{
			"mesh":0,
			"name":"Mac_And_Cheese_Single.046",
			"rotation":[
				0,
				-0.867124080657959,
				0,
				0.4980922341346741
			],
			"translation":[
				2.3715505599975586,
				0,
				1.0402915477752686
			]
		},
		{
			"mesh":0,
			"name":"Mac_And_Cheese_Single.047",
			"rotation":[
				0,
				-0.42405951023101807,
				0,
				0.905634343624115
			],
			"translation":[
				3.301827907562256,
				0,
				-0.1482286900281906
			]
		},
		{
			"mesh":0,
			"name":"Mac_And_Cheese_Single.048",
			"rotation":[
				0,
				-0.4548400640487671,
				0,
				0.8905731439590454
			],
			"translation":[
				2.652157783508301,
				0,
				0.37544238567352295
			]
		},
		{
			"mesh":0,
			"name":"Mac_And_Cheese_Single.049",
			"rotation":[
				0,
				-0.42405951023101807,
				0,
				0.905634343624115
			],
			"translation":[
				3.232142448425293,
				0,
				0.13430030643939972
			]
		},
		{
			"mesh":0,
			"name":"Mac_And_Cheese_Single.050",
			"rotation":[
				0,
				-0.8856207728385925,
				0,
				0.46440938115119934
			],
			"translation":[
				1.3180865049362183,
				0,
				1.3288302421569824
			]
		},
		{
			"mesh":0,
			"name":"Mac_And_Cheese_Single.051",
			"rotation":[
				0,
				0.04720538854598999,
				0,
				0.9988852143287659
			],
			"translation":[
				1.8227245807647705,
				0,
				1.0916671752929688
			]
		},
		{
			"mesh":0,
			"name":"Mac_And_Cheese_Single.052",
			"rotation":[
				0,
				-0.42405951023101807,
				0,
				0.905634343624115
			],
			"translation":[
				1.7808135747909546,
				0,
				0.5363061428070068
			]
		},
		{
			"mesh":0,
			"name":"Mac_And_Cheese_Single.053",
			"rotation":[
				0,
				-0.3326704204082489,
				0,
				0.9430431723594666
			],
			"translation":[
				1.5792239904403687,
				0,
				1.0829200744628906
			]
		},
		{
			"mesh":0,
			"name":"Mac_And_Cheese_Single.054",
			"rotation":[
				0,
				0.9234620332717896,
				0,
				0.38368985056877136
			],
			"translation":[
				3.821927309036255,
				0,
				0.5927906036376953
			]
		},
		{
			"mesh":0,
			"name":"Mac_And_Cheese_Single.055",
			"rotation":[
				0,
				0.9831189513206482,
				0,
				0.18296796083450317
			],
			"translation":[
				3.694248914718628,
				0,
				0.03648528456687927
			]
		},
		{
			"mesh":0,
			"name":"Mac_And_Cheese_Single.056",
			"rotation":[
				0,
				-0.9100169539451599,
				0,
				0.414571076631546
			],
			"translation":[
				5.0157928466796875,
				0,
				0.7655372619628906
			]
		},
		{
			"mesh":0,
			"name":"Mac_And_Cheese_Single.057",
			"rotation":[
				0,
				-0.9236869812011719,
				0,
				0.3831479251384735
			],
			"translation":[
				4.395310401916504,
				0,
				0.2075909972190857
			]
		},
		{
			"mesh":0,
			"name":"Mac_And_Cheese_Single.058",
			"rotation":[
				0,
				-0.9100169539451599,
				0,
				0.414571076631546
			],
			"translation":[
				4.725770473480225,
				0,
				0.7417517900466919
			]
		},
		{
			"mesh":0,
			"name":"Mac_And_Cheese_Single.059",
			"rotation":[
				0,
				0.9753634333610535,
				0,
				0.22060458362102509
			],
			"translation":[
				3.2415668964385986,
				0,
				-0.9575570821762085
			]
		},
		{
			"mesh":0,
			"name":"Mac_And_Cheese_Single.060",
			"rotation":[
				0,
				-0.6116771101951599,
				0,
				0.7911075949668884
			],
			"translation":[
				3.5560953617095947,
				0,
				-0.4971466064453125
			]
		},
		{
			"mesh":0,
			"name":"Mac_And_Cheese_Single.061",
			"rotation":[
				0,
				-0.9100169539451599,
				0,
				0.414571076631546
			],
			"translation":[
				4.097686290740967,
				0,
				-0.6269973516464233
			]
		},
		{
			"mesh":0,
			"name":"Mac_And_Cheese_Single.062",
			"rotation":[
				0,
				-0.8646914958953857,
				0,
				0.5023033618927002
			],
			"translation":[
				3.5259382724761963,
				0,
				-0.7389308214187622
			]
		},
		{
			"mesh":0,
			"name":"Mac_And_Cheese_Single.063",
			"rotation":[
				0,
				-0.4016945958137512,
				0,
				0.9157736897468567
			],
			"translation":[
				-7.411007881164551,
				0,
				-0.39480364322662354
			]
		},
		{
			"mesh":0,
			"name":"Mac_And_Cheese_Single.064",
			"rotation":[
				0,
				-0.20217907428741455,
				0,
				0.9793486595153809
			],
			"translation":[
				-7.30520486831665,
				0,
				0.16607333719730377
			]
		},
		{
			"mesh":0,
			"name":"Mac_And_Cheese_Single.065",
			"rotation":[
				0,
				0.39667657017707825,
				0,
				0.9179584383964539
			],
			"translation":[
				-8.597196578979492,
				0,
				-0.6141526699066162
			]
		},
		{
			"mesh":0,
			"name":"Mac_And_Cheese_Single.066",
			"rotation":[
				0,
				0.3649917542934418,
				0,
				0.9310107231140137
			],
			"translation":[
				-7.999031066894531,
				0,
				-0.03234483301639557
			]
		},
		{
			"mesh":0,
			"name":"Mac_And_Cheese_Single.067",
			"rotation":[
				0,
				0.39667657017707825,
				0,
				0.9179584383964539
			],
			"translation":[
				-8.308327674865723,
				0,
				-0.579032301902771
			]
		},
		{
			"mesh":0,
			"name":"Mac_And_Cheese_Single.068",
			"rotation":[
				0,
				-0.23965659737586975,
				0,
				0.9708577394485474
			],
			"translation":[
				-6.891781806945801,
				0,
				1.1770744323730469
			]
		},
		{
			"mesh":0,
			"name":"Mac_And_Cheese_Single.069",
			"rotation":[
				0,
				0.7789813876152039,
				0,
				0.627047061920166
			],
			"translation":[
				-7.188046455383301,
				0,
				0.7047043442726135
			]
		},
		{
			"mesh":0,
			"name":"Mac_And_Cheese_Single.070",
			"rotation":[
				0,
				0.39667657017707825,
				0,
				0.9179584383964539
			],
			"translation":[
				-7.734305381774902,
				0,
				0.8132545948028564
			]
		},
		{
			"mesh":0,
			"name":"Mac_And_Cheese_Single.071",
			"rotation":[
				0,
				0.4852793514728546,
				0,
				0.8743591904640198
			],
			"translation":[
				-7.16737699508667,
				0,
				0.9474837779998779
			]
		}
	],
	"materials":[
		{
			"doubleSided":true,
			"name":"Mac_Cheese_Box_Texture.001",
			"pbrMetallicRoughness":{
				"baseColorTexture":{
					"index":0
				},
				"metallicFactor":0,
				"roughnessFactor":0.5
			}
		}
	],
	"meshes":[
		{
			"name":"Plane.011",
			"primitives":[
				{
					"attributes":{
						"POSITION":0,
						"NORMAL":1,
						"TEXCOORD_0":2,
						"TANGENT":3
					},
					"indices":4,
					"material":0
				}
			]
		}
	],
	"textures":[
		{
			"sampler":0,
			"source":0
		}
	],
	"images":[
		{
			"mimeType":"image/jpeg",
			"name":"Mac_Cheese_Box_Texture",
			"uri":"textures/Mac_Cheese_Box_Texture.jpg"
		}
	],
	"accessors":[
		{
			"bufferView":0,
			"componentType":5126,
			"count":24,
			"max":[
				0.06349600851535797,
				0.23353958129882812,
				0.01663501001894474
			],
			"min":[
				-0.06349601596593857,
				-3.2933498150811147e-09,
				-0.016634982079267502
			],
			"type":"VEC3"
		},
		{
			"bufferView":1,
			"componentType":5126,
			"count":24,
			"type":"VEC3"
		},
		{
			"bufferView":2,
			"componentType":5126,
			"count":24,
			"type":"VEC2"
		},
		{
			"bufferView":3,
			"componentType":5126,
			"count":24,
			"type":"VEC4"
		},
		{
			"bufferView":4,
			"componentType":5123,
			"count":36,
			"type":"SCALAR"
		}
	],
	"bufferViews":[
		{
			"buffer":0,
			"byteLength":288,
			"byteOffset":0,
			"target":34962
		},
		{
			"buffer":0,
			"byteLength":288,
			"byteOffset":288,
			"target":34962
		},
		{
			"buffer":0,
			"byteLength":192,
			"byteOffset":576,
			"target":34962
		},
		{
			"buffer":0,
			"byteLength":384,
			"byteOffset":768,
			"target":34962
		},
		{
			"buffer":0,
			"byteLength":72,
			"byteOffset":1152,
			"target":34963
		}
	],
	"samplers":[
		{
			"magFilter":9729,
			"minFilter":9987
		}
	],
	"buffers":[
		{
			"byteLength":1224,
			"uri":"store_boxes_on_floor.bin"
		}
	]
}
