{
	"asset":{
		"generator":"Khronos glTF Blender I/O v5.0.21",
		"version":"2.0"
	},
	"scene":0,
	"scenes":[
		{
			"name":"Scene",
			"nodes":[
				0
			]
		}
	],
	"nodes":[
		{
			"mesh":0,
			"name":"Shelves",
			"rotation":[
				0.7071068286895752,
				0,
				0,
				0.7071068286895752
			],
			"translation":[
				42.91619873046875,
				1,
				-2.113539934158325
			]
		}
	],
	"materials":[
		{
			"doubleSided":true,
			"name":"Metal_Painted_002",
			"normalTexture":{
				"index":0
			},
			"pbrMetallicRoughness":{
				"baseColorTexture":{
					"index":1
				},
				"metallicRoughnessTexture":{
					"index":2
				}
			}
		},
		{
			"doubleSided":true,
			"name":"Can_Texture_1",
			"pbrMetallicRoughness":{
				"baseColorTexture":{
					"index":3
				},
				"metallicFactor":0,
				"roughnessFactor":0.5
			}
		},
		{
			"doubleSided":true,
			"name":"Silver_Metal",
			"pbrMetallicRoughness":{
				"baseColorFactor":[
					0.4294556975364685,
					0.4294556975364685,
					0.4294556975364685,
					1
				],
				"roughnessFactor":0.26923078298568726
			}
		},
		{
			"doubleSided":true,
			"name":"Can_Texture_2",
			"pbrMetallicRoughness":{
				"baseColorTexture":{
					"index":4
				},
				"metallicFactor":0,
				"roughnessFactor":0.18134699761867523
			}
		},
		{
			"doubleSided":true,
			"name":"Can_Texture_3",
			"pbrMetallicRoughness":{
				"baseColorTexture":{
					"index":5
				},
				"metallicFactor":0,
				"roughnessFactor":0.5
			}
		},
		{
			"doubleSided":true,
			"name":"Can_Texture_4",
			"pbrMetallicRoughness":{
				"baseColorTexture":{
					"index":6
				},
				"metallicFactor":0,
				"roughnessFactor":0.5
			}
		},
		{
			"doubleSided":true,
			"name":"Mac_Cheese_Box_Texture",
			"pbrMetallicRoughness":{
				"baseColorTexture":{
					"index":7
				},
				"metallicFactor":0,
				"roughnessFactor":0.5
			}
		}
	],
	"meshes":[
		{
			"name":"Plane.002",
			"primitives":[
				{
					"attributes":{
						"POSITION":0,
						"NORMAL":1,
						"TEXCOORD_0":2
					},
					"indices":3,
					"material":0
				},
				{
					"attributes":{
						"POSITION":4,
						"NORMAL":5,
						"TEXCOORD_0":6
					},
					"indices":7,
					"material":1
				},
				{
					"attributes":{
						"POSITION":8,
						"NORMAL":9,
						"TEXCOORD_0":10
					},
					"indices":11,
					"material":2
				},
				{
					"attributes":{
						"POSITION":12,
						"NORMAL":13,
						"TEXCOORD_0":14
					},
					"indices":15,
					"material":3
				},
				{
					"attributes":{
						"POSITION":16,
						"NORMAL":17,
						"TEXCOORD_0":18
					},
					"indices":19,
					"material":4
				},
				{
					"attributes":{
						"POSITION":20,
						"NORMAL":21,
						"TEXCOORD_0":22
					},
					"indices":23,
					"material":5
				},
				{
					"attributes":{
						"POSITION":24,
						"NORMAL":25,
						"TEXCOORD_0":26
					},
					"indices":27,
					"material":6
				}
			]
		}
	],
	"textures":[
		{
			"sampler":0,
			"source":0
		},
		{
			"sampler":0,
			"source":1
		},
		{
			"sampler":0,
			"source":2
		},
		{
			"sampler":0,
			"source":3
		},
		{
			"sampler":0,
			"source":4
		},
		{
			"sampler":0,
			"source":5
		},
		{
			"sampler":0,
			"source":6
		},
		{
			"sampler":0,
			"source":7
		}
	],
	"images":[
		{
			"mimeType":"image/jpeg",
			"name":"Metal_Painted_002_normal",
			"uri":"textures/Metal_Painted_002_normal.jpg"
		},
		{
			"mimeType":"image/jpeg",
			"name":"Metal_Painted_002_basecolor",
			"uri":"textures/Metal_Painted_002_basecolor.jpg"
		},
		{
			"mimeType":"image/jpeg",
			"name":"Metal_Painted_002_metallic-Metal_Painted_002_roughness",
			"uri":"textures/Metal_Painted_002_metallic-Metal_Painted_002_roughness.jpg"
		},
		{
			"mimeType":"image/jpeg",
			"name":"Can_Texture_1",
			"uri":"textures/Can_Texture_1.jpg"
		},
		{
			"mimeType":"image/jpeg",
			"name":"Can_Texture_2",
			"uri":"textures/Can_Texture_2.jpg"
		},
		{
			"mimeType":"image/jpeg",
			"name":"Can_Texture_3",
			"uri":"textures/Can_Texture_3.jpg"
		},
		{
			"mimeType":"image/jpeg",
			"name":"Can_Texture_4",
			"uri":"textures/Can_Texture_4.jpg"
		},
		{
			"mimeType":"image/jpeg",
			"name":"Mac_Cheese_Box_Texture",
			"uri":"textures/Mac_Cheese_Box_Texture.jpg"
		}
	],
	"accessors":[
		{
			"bufferView":0,
			"componentType":5126,
			"count":318,
			"max":[
				1.236485481262207,
				0.2763614058494568,
				1
			],
			"min":[
				-1.236485481262207,
				-0.6508569717407227,
				-1.4904614686965942
			],
			"type":"VEC3"
		},
		{
			"bufferView":1,
			"componentType":5126,
			"count":318,
			"type":"VEC3"
		},
		{
			"bufferView":2,
			"componentType":5126,
			"count":318,
			"type":"VEC2"
		},
		{
			"bufferView":3,
			"componentType":5123,
			"count":582,
			"type":"SCALAR"
		},
		{
			"bufferView":4,
			"componentType":5126,
			"count":2576,
			"max":[
				1.2053030729293823,
				0.25359049439430237,
				0.9479382634162903
			],
			"min":[
				-1.182931900024414,
				-0.36653339862823486,
				0.6897167563438416
			],
			"type":"VEC3"
		},
		{
			"bufferView":5,
			"componentType":5126,
			"count":2576,
			"type":"VEC3"
		},
		{
			"bufferView":6,
			"componentType":5126,
			"count":2576,
			"type":"VEC2"
		},
		{
			"bufferView":7,
			"componentType":5123,
			"count":4416,
			"type":"SCALAR"
		},
		{
			"bufferView":8,
			"componentType":5126,
			"count":2874,
			"max":[
				1.209011435508728,
				0.2672250270843506,
				0.8188275098800659
			],
			"min":[
				-1.182931900024414,
				-0.49356138706207275,
				-0.8038032054901123
			],
			"type":"VEC3"
		},
		{
			"bufferView":9,
			"componentType":5126,
			"count":2874,
			"type":"VEC3"
		},
		{
			"bufferView":10,
			"componentType":5126,
			"count":2874,
			"type":"VEC2"
		},
		{
			"bufferView":11,
			"componentType":5123,
			"count":5748,
			"type":"SCALAR"
		},
		{
			"bufferView":12,
			"componentType":5126,
			"count":4088,
			"max":[
				1.195521354675293,
				0.2672250270843506,
				0.20117835700511932
			],
			"min":[
				-1.1686673164367676,
				-0.49356138706207275,
				-0.057043299078941345
			],
			"type":"VEC3"
		},
		{
			"bufferView":13,
			"componentType":5126,
			"count":4088,
			"type":"VEC3"
		},
		{
			"bufferView":14,
			"componentType":5126,
			"count":4088,
			"type":"VEC2"
		},
		{
			"bufferView":15,
			"componentType":5123,
			"count":7008,
			"type":"SCALAR"
		},
		{
			"bufferView":16,
			"componentType":5126,
			"count":7264,
			"max":[
				1.1991608142852783,
				0.23745322227478027,
				-0.5455816388130188
			],
			"min":[
				-1.1650736331939697,
				-0.6062372922897339,
				-1.5184211730957031
			],
			"type":"VEC3"
		},
		{
			"bufferView":17,
			"componentType":5126,
			"count":7264,
			"type":"VEC3"
		},
		{
			"bufferView":18,
			"componentType":5126,
			"count":7264,
			"type":"VEC2"
		},
		{
			"bufferView":19,
			"componentType":5123,
			"count":11784,
			"type":"SCALAR"
		},
		{
			"bufferView":20,
			"componentType":5126,
			"count":2604,
			"max":[
				1.209011435508728,
				0.261229008436203,
				0.5745583772659302
			],
			"min":[
				-1.1650736331939697,
				-0.4904581904411316,
				0.31633681058883667
			],
			"type":"VEC3"
		},
		{
			"bufferView":21,
			"componentType":5126,
			"count":2604,
			"type":"VEC3"
		},
		{
			"bufferView":22,
			"componentType":5126,
			"count":2604,
			"type":"VEC2"
		},
		{
			"bufferView":23,
			"componentType":5123,
			"count":4464,
			"type":"SCALAR"
		},
		{
			"bufferView":24,
			"componentType":5126,
			"count":2568,
			"max":[
				1.137258529663086,
				0.18308815360069275,
				-0.1647416204214096
			],
			"min":[
				-1.1580290794372559,
				-0.6067236065864563,
				-0.3982812762260437
			],
			"type":"VEC3"
		},
		{
			"bufferView":25,
			"componentType":5126,
			"count":2568,
			"type":"VEC3"
		},
		{
			"bufferView":26,
			"componentType":5126,
			"count":2568,
			"type":"VEC2"
		},
		{
			"bufferView":27,
			"componentType":5123,
			"count":3852,
			"type":"SCALAR"
		}
	],
	"bufferViews":[
		{
			"buffer":0,
			"byteLength":3816,
			"byteOffset":0,
			"target":34962
		},
		{
			"buffer":0,
			"byteLength":3816,
			"byteOffset":3816,
			"target":34962
		},
		{
			"buffer":0,
			"byteLength":2544,
			"byteOffset":7632,
			"target":34962
		},
		{
			"buffer":0,
			"byteLength":1164,
			"byteOffset":10176,
			"target":34963
		},
		{
			"buffer":0,
			"byteLength":30912,
			"byteOffset":11340,
			"target":34962
		},
		{
			"buffer":0,
			"byteLength":30912,
			"byteOffset":42252,
			"target":34962
		},
		{
			"buffer":0,
			"byteLength":20608,
			"byteOffset":73164,
			"target":34962
		},
		{
			"buffer":0,
			"byteLength":8832,
			"byteOffset":93772,
			"target":34963
		},
		{
			"buffer":0,
			"byteLength":34488,
			"byteOffset":102604,
			"target":34962
		},
		{
			"buffer":0,
			"byteLength":34488,
			"byteOffset":137092,
			"target":34962
		},
		{
			"buffer":0,
			"byteLength":22992,
			"byteOffset":171580,
			"target":34962
		},
		{
			"buffer":0,
			"byteLength":11496,
			"byteOffset":194572,
			"target":34963
		},
		{
			"buffer":0,
			"byteLength":49056,
			"byteOffset":206068,
			"target":34962
		},
		{
			"buffer":0,
			"byteLength":49056,
			"byteOffset":255124,
			"target":34962
		},
		{
			"buffer":0,
			"byteLength":32704,
			"byteOffset":304180,
			"target":34962
		},
		{
			"buffer":0,
			"byteLength":14016,
			"byteOffset":336884,
			"target":34963
		},
		{
			"buffer":0,
			"byteLength":87168,
			"byteOffset":350900,
			"target":34962
		},
		{
			"buffer":0,
			"byteLength":87168,
			"byteOffset":438068,
			"target":34962
		},
		{
			"buffer":0,
			"byteLength":58112,
			"byteOffset":525236,
			"target":34962
		},
		{
			"buffer":0,
			"byteLength":23568,
			"byteOffset":583348,
			"target":34963
		},
		{
			"buffer":0,
			"byteLength":31248,
			"byteOffset":606916,
			"target":34962
		},
		{
			"buffer":0,
			"byteLength":31248,
			"byteOffset":638164,
			"target":34962
		},
		{
			"buffer":0,
			"byteLength":20832,
			"byteOffset":669412,
			"target":34962
		},
		{
			"buffer":0,
			"byteLength":8928,
			"byteOffset":690244,
			"target":34963
		},
		{
			"buffer":0,
			"byteLength":30816,
			"byteOffset":699172,
			"target":34962
		},
		{
			"buffer":0,
			"byteLength":30816,
			"byteOffset":729988,
			"target":34962
		},
		{
			"buffer":0,
			"byteLength":20544,
			"byteOffset":760804,
			"target":34962
		},
		{
			"buffer":0,
			"byteLength":7704,
			"byteOffset":781348,
			"target":34963
		}
	],
	"samplers":[
		{
			"magFilter":9729,
			"minFilter":9987
		}
	],
	"buffers":[
		{
			"byteLength":789052,
			"uri":"store_shelf.bin"
		}
	]
}
