{
	"asset":{
		"generator":"Khronos glTF Blender I/O v5.0.21",
		"version":"2.0"
	},
	"scene":0,
	"scenes":[
		{
			"name":"Scene",
			"nodes":[
				2
			]
		}
	],
	"nodes":[
		{
			"mesh":0,
			"name":"Giant_Mac_And_Cheese_Box.001",
			"rotation":[
				-6.585463840913519e-10,
				-0.7071067690849304,
				2.634178652982655e-09,
				0.7071067690849304
			],
			"scale":[
				1,
				1.000000238418579,
				1
			],
			"translation":[
				5.884430720470846e-08,
				2.0322976112365723,
				7.594379894726444e-06
			]
		},
		{
			"children":[
				0
			],
			"name":"Bone",
			"rotation":[
				0,
				0.7071070075035095,
				0,
				0.7071065306663513
			],
			"scale":[
				1,
				0.9999999403953552,
				1
			],
			"translation":[
				0,
				-2.0322980880737305,
				0
			]
		},
		{
			"children":[
				1
			],
			"name":"Armature.001",
			"translation":[
				-50.422672271728516,
				2.069765090942383,
				0.04613447189331055
			]
		}
	],
	"animations":[
		{
			"channels":[
				{
					"sampler":0,
					"target":{
						"node":1,
						"path":"translation"
					}
				},
				{
					"sampler":1,
					"target":{
						"node":1,
						"path":"rotation"
					}
				},
				{
					"sampler":2,
					"target":{
						"node":1,
						"path":"scale"
					}
				}
			],
			"name":"Run_Cycle",
			"samplers":[
				{
					"input":5,
					"interpolation":"LINEAR",
					"output":6
				},
				{
					"input":5,
					"interpolation":"LINEAR",
					"output":7
				},
				{
					"input":8,
					"interpolation":"STEP",
					"output":9
				}
			]
		},
		{
			"channels":[
				{
					"sampler":0,
					"target":{
						"node":1,
						"path":"translation"
					}
				},
				{
					"sampler":1,
					"target":{
						"node":1,
						"path":"rotation"
					}
				},
				{
					"sampler":2,
					"target":{
						"node":1,
						"path":"scale"
					}
				}
			],
			"name":"Rest_Pose",
			"samplers":[
				{
					"input":10,
					"interpolation":"STEP",
					"output":11
				},
				{
					"input":10,
					"interpolation":"STEP",
					"output":12
				},
				{
					"input":10,
					"interpolation":"STEP",
					"output":9
				}
			]
		},
		{
			"channels":[
				{
					"sampler":0,
					"target":{
						"node":1,
						"path":"translation"
					}
				},
				{
					"sampler":1,
					"target":{
						"node":1,
						"path":"rotation"
					}
				},
				{
					"sampler":2,
					"target":{
						"node":1,
						"path":"scale"
					}
				}
			],
			"name":"Run_Cycle_Lumbering",
			"samplers":[
				{
					"input":13,
					"interpolation":"LINEAR",
					"output":14
				},
				{
					"input":13,
					"interpolation":"LINEAR",
					"output":15
				},
				{
					"input":16,
					"interpolation":"STEP",
					"output":9
				}
			]
		}
	],
	"materials":[
		{
			"doubleSided":true,
			"name":"Mac_Cheese_Box_Texture",
			"pbrMetallicRoughness":{
				"baseColorTexture":{
					"index":0
				},
				"metallicFactor":0,
				"roughnessFactor":0.5
			}
		}
	],
	"meshes":[
		{
			"name":"Cube.001",
			"primitives":[
				{
					"attributes":{
						"POSITION":0,
						"NORMAL":1,
						"TEXCOORD_0":2,
						"TANGENT":3
					},
					"indices":4,
					"material":0
				}
			]
		}
	],
	"textures":[
		{
			"sampler":0,
			"source":0
		}
	],
	"images":[
		{
			"mimeType":"image/jpeg",
			"name":"Mac_Cheese_Box_Texture",
			"uri":"textures/Mac_Cheese_Box_Texture.jpg"
		}
	],
	"skins":[
		{
			"inverseBindMatrices":17,
			"joints":[
				1
			],
			"name":"Armature.001"
		}
	],
	"accessors":[
		{
			"bufferView":0,
			"componentType":5126,
			"count":24,
			"max":[
				0.294647216796875,
				2.0697646141052246,
				1.1254223585128784
			],
			"min":[
				-0.294647216796875,
				-2.0697648525238037,
				-1.1254223585128784
			],
			"type":"VEC3"
		},
		{
			"bufferView":1,
			"componentType":5126,
			"count":24,
			"type":"VEC3"
		},
		{
			"bufferView":2,
			"componentType":5126,
			"count":24,
			"type":"VEC2"
		},
		{
			"bufferView":3,
			"componentType":5126,
			"count":24,
			"type":"VEC4"
		},
		{
			"bufferView":4,
			"componentType":5123,
			"count":36,
			"type":"SCALAR"
		},
		{
			"bufferView":5,
			"componentType":5126,
			"count":16,
			"max":[
				0.625
			],
			"min":[
				0
			],
			"type":"SCALAR"
		},
		{
			"bufferView":6,
			"componentType":5126,
			"count":16,
			"type":"VEC3"
		},
		{
			"bufferView":7,
			"componentType":5126,
			"count":16,
			"type":"VEC4"
		},
		{
			"bufferView":8,
			"componentType":5126,
			"count":2,
			"max":[
				0.625
			],
			"min":[
				0
			],
			"type":"SCALAR"
		},
		{
			"bufferView":9,
			"componentType":5126,
			"count":2,
			"type":"VEC3"
		},
		{
			"bufferView":10,
			"componentType":5126,
			"count":2,
			"max":[
				0.041666666666666664
			],
			"min":[
				0
			],
			"type":"SCALAR"
		},
		{
			"bufferView":11,
			"componentType":5126,
			"count":2,
			"type":"VEC3"
		},
		{
			"bufferView":12,
			"componentType":5126,
			"count":2,
			"type":"VEC4"
		},
		{
			"bufferView":13,
			"componentType":5126,
			"count":31,
			"max":[
				1.25
			],
			"min":[
				0
			],
			"type":"SCALAR"
		},
		{
			"bufferView":14,
			"componentType":5126,
			"count":31,
			"type":"VEC3"
		},
		{
			"bufferView":15,
			"componentType":5126,
			"count":31,
			"type":"VEC4"
		},
		{
			"bufferView":16,
			"componentType":5126,
			"count":2,
			"max":[
				1.25
			],
			"min":[
				0
			],
			"type":"SCALAR"
		},
		{
			"bufferView":17,
			"componentType":5126,
			"count":1,
			"type":"MAT4"
		}
	],
	"bufferViews":[
		{
			"buffer":0,
			"byteLength":288,
			"byteOffset":0,
			"target":34962
		},
		{
			"buffer":0,
			"byteLength":288,
			"byteOffset":288,
			"target":34962
		},
		{
			"buffer":0,
			"byteLength":192,
			"byteOffset":576,
			"target":34962
		},
		{
			"buffer":0,
			"byteLength":384,
			"byteOffset":768,
			"target":34962
		},
		{
			"buffer":0,
			"byteLength":72,
			"byteOffset":1152,
			"target":34963
		},
		{
			"buffer":0,
			"byteLength":64,
			"byteOffset":1224
		},
		{
			"buffer":0,
			"byteLength":192,
			"byteOffset":1288
		},
		{
			"buffer":0,
			"byteLength":256,
			"byteOffset":1480
		},
		{
			"buffer":0,
			"byteLength":8,
			"byteOffset":1736
		},
		{
			"buffer":0,
			"byteLength":24,
			"byteOffset":1744
		},
		{
			"buffer":0,
			"byteLength":8,
			"byteOffset":1768
		},
		{
			"buffer":0,
			"byteLength":24,
			"byteOffset":1776
		},
		{
			"buffer":0,
			"byteLength":32,
			"byteOffset":1800
		},
		{
			"buffer":0,
			"byteLength":124,
			"byteOffset":1832
		},
		{
			"buffer":0,
			"byteLength":372,
			"byteOffset":1956
		},
		{
			"buffer":0,
			"byteLength":496,
			"byteOffset":2328
		},
		{
			"buffer":0,
			"byteLength":8,
			"byteOffset":2824
		},
		{
			"buffer":0,
			"byteLength":64,
			"byteOffset":2832
		}
	],
	"samplers":[
		{
			"magFilter":9729,
			"minFilter":9987
		}
	],
	"buffers":[
		{
			"byteLength":2896,
			"uri":"store_mac_anim.bin"
		}
	]
}
