{
	"asset":{
		"generator":"Khronos glTF Blender I/O v5.0.21",
		"version":"2.0"
	},
	"scene":0,
	"scenes":[
		{
			"name":"Scene",
			"nodes":[
				0
			]
		}
	],
	"nodes":[
		{
			"mesh":0,
			"name":"Shelves.003",
			"rotation":[
				0.7071068286895752,
				0,
				0,
				0.7071068286895752
			],
			"translation":[
				42.91617965698242,
				1,
				-2.113543748855591
			]
		}
	],
	"materials":[
		{
			"doubleSided":true,
			"name":"Metal_Painted_002",
			"normalTexture":{
				"index":0
			},
			"pbrMetallicRoughness":{
				"baseColorTexture":{
					"index":1
				},
				"metallicRoughnessTexture":{
					"index":2
				}
			}
		},
		{
			"doubleSided":true,
			"name":"Mac_Cheese_Box_Texture",
			"pbrMetallicRoughness":{
				"baseColorTexture":{
					"index":3
				},
				"metallicFactor":0,
				"roughnessFactor":0.5
			}
		}
	],
	"meshes":[
		{
			"name":"Plane.013",
			"primitives":[
				{
					"attributes":{
						"POSITION":0,
						"NORMAL":1,
						"TEXCOORD_0":2,
						"TANGENT":3
					},
					"indices":4,
					"material":0
				},
				{
					"attributes":{
						"POSITION":5,
						"NORMAL":6,
						"TEXCOORD_0":7,
						"TANGENT":8
					},
					"indices":9,
					"material":1
				}
			]
		}
	],
	"textures":[
		{
			"sampler":0,
			"source":0
		},
		{
			"sampler":0,
			"source":1
		},
		{
			"sampler":0,
			"source":2
		},
		{
			"sampler":0,
			"source":3
		}
	],
	"images":[
		{
			"mimeType":"image/jpeg",
			"name":"Metal_Painted_002_normal",
			"uri":"textures/Metal_Painted_002_normal.jpg"
		},
		{
			"mimeType":"image/jpeg",
			"name":"Metal_Painted_002_basecolor",
			"uri":"textures/Metal_Painted_002_basecolor.jpg"
		},
		{
			"mimeType":"image/jpeg",
			"name":"Metal_Painted_002_metallic-Metal_Painted_002_roughness",
			"uri":"textures/Metal_Painted_002_metallic-Metal_Painted_002_roughness.jpg"
		},
		{
			"mimeType":"image/jpeg",
			"name":"Mac_Cheese_Box_Texture",
			"uri":"textures/Mac_Cheese_Box_Texture.jpg"
		}
	],
	"accessors":[
		{
			"bufferView":0,
			"componentType":5126,
			"count":318,
			"max":[
				1.236485481262207,
				0.2763614058494568,
				1
			],
			"min":[
				-1.236485481262207,
				-0.6508569717407227,
				-1.4904614686965942
			],
			"type":"VEC3"
		},
		{
			"bufferView":1,
			"componentType":5126,
			"count":318,
			"type":"VEC3"
		},
		{
			"bufferView":2,
			"componentType":5126,
			"count":318,
			"type":"VEC2"
		},
		{
			"bufferView":3,
			"componentType":5126,
			"count":318,
			"type":"VEC4"
		},
		{
			"bufferView":4,
			"componentType":5123,
			"count":582,
			"type":"SCALAR"
		},
		{
			"bufferView":5,
			"componentType":5126,
			"count":17976,
			"max":[
				1.137258529663086,
				0.2633373439311981,
				0.9479383230209351
			],
			"min":[
				-1.1580290794372559,
				-0.6067236065864563,
				-1.525881290435791
			],
			"type":"VEC3"
		},
		{
			"bufferView":6,
			"componentType":5126,
			"count":17976,
			"type":"VEC3"
		},
		{
			"bufferView":7,
			"componentType":5126,
			"count":17976,
			"type":"VEC2"
		},
		{
			"bufferView":8,
			"componentType":5126,
			"count":17976,
			"type":"VEC4"
		},
		{
			"bufferView":9,
			"componentType":5123,
			"count":26964,
			"type":"SCALAR"
		}
	],
	"bufferViews":[
		{
			"buffer":0,
			"byteLength":3816,
			"byteOffset":0,
			"target":34962
		},
		{
			"buffer":0,
			"byteLength":3816,
			"byteOffset":3816,
			"target":34962
		},
		{
			"buffer":0,
			"byteLength":2544,
			"byteOffset":7632,
			"target":34962
		},
		{
			"buffer":0,
			"byteLength":5088,
			"byteOffset":10176,
			"target":34962
		},
		{
			"buffer":0,
			"byteLength":1164,
			"byteOffset":15264,
			"target":34963
		},
		{
			"buffer":0,
			"byteLength":215712,
			"byteOffset":16428,
			"target":34962
		},
		{
			"buffer":0,
			"byteLength":215712,
			"byteOffset":232140,
			"target":34962
		},
		{
			"buffer":0,
			"byteLength":143808,
			"byteOffset":447852,
			"target":34962
		},
		{
			"buffer":0,
			"byteLength":287616,
			"byteOffset":591660,
			"target":34962
		},
		{
			"buffer":0,
			"byteLength":53928,
			"byteOffset":879276,
			"target":34963
		}
	],
	"samplers":[
		{
			"magFilter":9729,
			"minFilter":9987
		}
	],
	"buffers":[
		{
			"byteLength":933204,
			"uri":"store_mac_shelf.bin"
		}
	]
}
