{
	"asset":{
		"generator":"Khronos glTF Blender I/O v5.0.21",
		"version":"2.0"
	},
	"scene":0,
	"scenes":[
		{
			"name":"Scene",
			"nodes":[
				0
			]
		}
	],
	"nodes":[
		{
			"mesh":0,
			"name":"Plane.014",
			"translation":[
				-0.04468393325805664,
				0.11772074550390244,
				0
			]
		}
	],
	"materials":[
		{
			"doubleSided":true,
			"name":"Silver_Metal",
			"pbrMetallicRoughness":{
				"baseColorFactor":[
					0.4294556975364685,
					0.4294556975364685,
					0.4294556975364685,
					1
				],
				"roughnessFactor":0.26923078298568726
			}
		},
		{
			"doubleSided":true,
			"name":"Black_Matte",
			"pbrMetallicRoughness":{
				"baseColorFactor":[
					0.00942557118833065,
					0.00942557118833065,
					0.00942557118833065,
					1
				],
				"metallicFactor":0,
				"roughnessFactor":0.7762237787246704
			}
		},
		{
			"doubleSided":true,
			"name":"Red",
			"pbrMetallicRoughness":{
				"baseColorFactor":[
					0.8000074625015259,
					0.011639570817351341,
					0.00597026851028204,
					1
				],
				"metallicFactor":0,
				"roughnessFactor":0.1398601531982422
			}
		}
	],
	"meshes":[
		{
			"name":"Plane.051",
			"primitives":[
				{
					"attributes":{
						"POSITION":0,
						"NORMAL":1,
						"TEXCOORD_0":2
					},
					"indices":3,
					"material":0
				},
				{
					"attributes":{
						"POSITION":4,
						"NORMAL":5,
						"TEXCOORD_0":6
					},
					"indices":7,
					"material":1
				},
				{
					"attributes":{
						"POSITION":8,
						"NORMAL":9,
						"TEXCOORD_0":10
					},
					"indices":11,
					"material":2
				}
			]
		}
	],
	"accessors":[
		{
			"bufferView":0,
			"componentType":5126,
			"count":2616,
			"max":[
				1.068941593170166,
				1.0874441862106323,
				0.39942264556884766
			],
			"min":[
				-0.6810601353645325,
				-0.10894148051738739,
				-0.39942264556884766
			],
			"type":"VEC3"
		},
		{
			"bufferView":1,
			"componentType":5126,
			"count":2616,
			"type":"VEC3"
		},
		{
			"bufferView":2,
			"componentType":5126,
			"count":2616,
			"type":"VEC2"
		},
		{
			"bufferView":3,
			"componentType":5123,
			"count":3984,
			"type":"SCALAR"
		},
		{
			"bufferView":4,
			"componentType":5126,
			"count":512,
			"max":[
				0.6461741924285889,
				0.026202477514743805,
				0.38089585304260254
			],
			"min":[
				-0.6104432940483093,
				-0.12159360200166702,
				-0.38089582324028015
			],
			"type":"VEC3"
		},
		{
			"bufferView":5,
			"componentType":5126,
			"count":512,
			"type":"VEC3"
		},
		{
			"bufferView":6,
			"componentType":5126,
			"count":512,
			"type":"VEC2"
		},
		{
			"bufferView":7,
			"componentType":5123,
			"count":960,
			"type":"SCALAR"
		},
		{
			"bufferView":8,
			"componentType":5126,
			"count":2672,
			"max":[
				1.0752575397491455,
				1.0925357341766357,
				0.38911172747612
			],
			"min":[
				-0.5687445998191833,
				0.08721083402633667,
				-0.38911172747612
			],
			"type":"VEC3"
		},
		{
			"bufferView":9,
			"componentType":5126,
			"count":2672,
			"type":"VEC3"
		},
		{
			"bufferView":10,
			"componentType":5126,
			"count":2672,
			"type":"VEC2"
		},
		{
			"bufferView":11,
			"componentType":5123,
			"count":4704,
			"type":"SCALAR"
		}
	],
	"bufferViews":[
		{
			"buffer":0,
			"byteLength":31392,
			"byteOffset":0,
			"target":34962
		},
		{
			"buffer":0,
			"byteLength":31392,
			"byteOffset":31392,
			"target":34962
		},
		{
			"buffer":0,
			"byteLength":20928,
			"byteOffset":62784,
			"target":34962
		},
		{
			"buffer":0,
			"byteLength":7968,
			"byteOffset":83712,
			"target":34963
		},
		{
			"buffer":0,
			"byteLength":6144,
			"byteOffset":91680,
			"target":34962
		},
		{
			"buffer":0,
			"byteLength":6144,
			"byteOffset":97824,
			"target":34962
		},
		{
			"buffer":0,
			"byteLength":4096,
			"byteOffset":103968,
			"target":34962
		},
		{
			"buffer":0,
			"byteLength":1920,
			"byteOffset":108064,
			"target":34963
		},
		{
			"buffer":0,
			"byteLength":32064,
			"byteOffset":109984,
			"target":34962
		},
		{
			"buffer":0,
			"byteLength":32064,
			"byteOffset":142048,
			"target":34962
		},
		{
			"buffer":0,
			"byteLength":21376,
			"byteOffset":174112,
			"target":34962
		},
		{
			"buffer":0,
			"byteLength":9408,
			"byteOffset":195488,
			"target":34963
		}
	],
	"buffers":[
		{
			"byteLength":204896,
			"uri":"store_cart.bin"
		}
	]
}
