{
	"asset":{
		"generator":"Khronos glTF Blender I/O v5.0.21",
		"version":"2.0"
	},
	"scene":0,
	"scenes":[
		{
			"name":"Scene",
			"nodes":[
				13
			]
		}
	],
	"nodes":[
		{
			"name":"Spine_1.002",
			"rotation":[
				-1.6370178101965394e-08,
				-5.761845756069306e-08,
				0.049441464245319366,
				0.9987770318984985
			],
			"translation":[
				2.3841822383019462e-07,
				3.2994160652160645,
				-5.684341886080802e-14
			]
		},
		{
			"children":[
				0
			],
			"name":"Spine_1.001",
			"rotation":[
				2.0248510423925836e-08,
				1.0477253198359904e-07,
				-0.05114616081118584,
				0.998691201210022
			],
			"scale":[
				0.9999999403953552,
				1,
				1
			],
			"translation":[
				-1.192093463942001e-07,
				3.664541006088257,
				7.105427357601002e-15
			]
		},
		{
			"children":[
				1
			],
			"name":"Spine_1",
			"rotation":[
				-3.1521267374046147e-07,
				1.6942359479799052e-06,
				-0.17851057648658752,
				0.9839380383491516
			],
			"translation":[
				1.5253529994652126e-08,
				5.218725681304932,
				-1.1368683772161603e-13
			]
		},
		{
			"name":"Tail_4",
			"rotation":[
				-1.3267723031340495e-10,
				-2.410351100934349e-07,
				-0.007230828516185284,
				0.9999738931655884
			],
			"scale":[
				1,
				0.9999999403953552,
				1
			],
			"translation":[
				-7.152559078349441e-07,
				2.26493239402771,
				-5.684341886080802e-14
			]
		},
		{
			"children":[
				3
			],
			"name":"Tail_3",
			"rotation":[
				8.906741122416406e-09,
				-1.4145575732982252e-07,
				-0.02445647120475769,
				0.9997009038925171
			],
			"translation":[
				-1.192095169244567e-07,
				2.9703385829925537,
				-1.1368683772161603e-13
			]
		},
		{
			"children":[
				4
			],
			"name":"Tail_2",
			"rotation":[
				9.097436581839702e-09,
				3.746371817214822e-07,
				-0.07716990262269974,
				0.9970179200172424
			],
			"translation":[
				-5.960460924825384e-08,
				3.1461870670318604,
				4.263256414560601e-14
			]
		},
		{
			"children":[
				5
			],
			"name":"Tail_1",
			"rotation":[
				-0.09573005139827728,
				0.7005964517593384,
				-0.09573007375001907,
				0.7005969882011414
			],
			"scale":[
				1,
				1.0000001192092896,
				1
			],
			"translation":[
				5.7366288911016305e-15,
				2.822349786758423,
				1.196345268943827e-14
			]
		},
		{
			"children":[
				6
			],
			"name":"Tail_0",
			"rotation":[
				0.7068843245506287,
				0.01769416034221649,
				-0.7068864703178406,
				0.017694054171442986
			],
			"scale":[
				1.0000016689300537,
				0.9999999403953552,
				0.9999999403953552
			],
			"translation":[
				-1.6621960752249976e-11,
				-2.8720059663811526e-10,
				-1.8378188970658016e-09
			]
		},
		{
			"children":[
				2,
				7
			],
			"name":"Spine_0",
			"rotation":[
				1.2017820836263127e-06,
				-1.208208686875878e-06,
				0.6891913414001465,
				0.7245794534683228
			],
			"translation":[
				-0.017670869827270508,
				-4.297128342045653e-08,
				5.274281988931762e-07
			]
		},
		{
			"name":"Tail_4.001",
			"rotation":[
				2.400809364644374e-07,
				5.5466873760678936e-08,
				0.5283216834068298,
				0.8490443229675293
			],
			"scale":[
				0.9999999403953552,
				1,
				1
			],
			"translation":[
				1.7881440328437748e-07,
				2.384185791015625e-07,
				1.720820819173241e-09
			]
		},
		{
			"children":[
				9
			],
			"name":"Tail_Target",
			"rotation":[
				0.09214040637016296,
				0.9957460165023804,
				8.417704755458999e-09,
				2.3815108818325825e-07
			],
			"scale":[
				1,
				1.000000238418579,
				1
			],
			"translation":[
				11.742280960083008,
				3.7403488159179688,
				-1.0032083537225844e-06
			]
		},
		{
			"name":"Spine_Target",
			"rotation":[
				6.339202940353061e-08,
				2.384185791015625e-07,
				1.6016820438306476e-14,
				1
			],
			"translation":[
				-11.469548225402832,
				3.33298397064209,
				1.288891780859558e-06
			]
		},
		{
			"mesh":0,
			"name":"Whale",
			"skin":0
		},
		{
			"children":[
				12,
				8,
				10,
				11
			],
			"name":"Whale_Armature"
		}
	],
	"animations":[
		{
			"channels":[
				{
					"sampler":0,
					"target":{
						"node":8,
						"path":"translation"
					}
				},
				{
					"sampler":1,
					"target":{
						"node":8,
						"path":"rotation"
					}
				},
				{
					"sampler":2,
					"target":{
						"node":8,
						"path":"scale"
					}
				},
				{
					"sampler":3,
					"target":{
						"node":2,
						"path":"translation"
					}
				},
				{
					"sampler":4,
					"target":{
						"node":2,
						"path":"rotation"
					}
				},
				{
					"sampler":5,
					"target":{
						"node":2,
						"path":"scale"
					}
				},
				{
					"sampler":6,
					"target":{
						"node":1,
						"path":"translation"
					}
				},
				{
					"sampler":7,
					"target":{
						"node":1,
						"path":"rotation"
					}
				},
				{
					"sampler":8,
					"target":{
						"node":1,
						"path":"scale"
					}
				},
				{
					"sampler":9,
					"target":{
						"node":0,
						"path":"translation"
					}
				},
				{
					"sampler":10,
					"target":{
						"node":0,
						"path":"rotation"
					}
				},
				{
					"sampler":11,
					"target":{
						"node":0,
						"path":"scale"
					}
				},
				{
					"sampler":12,
					"target":{
						"node":7,
						"path":"translation"
					}
				},
				{
					"sampler":13,
					"target":{
						"node":7,
						"path":"rotation"
					}
				},
				{
					"sampler":14,
					"target":{
						"node":7,
						"path":"scale"
					}
				},
				{
					"sampler":15,
					"target":{
						"node":6,
						"path":"translation"
					}
				},
				{
					"sampler":16,
					"target":{
						"node":6,
						"path":"rotation"
					}
				},
				{
					"sampler":17,
					"target":{
						"node":6,
						"path":"scale"
					}
				},
				{
					"sampler":18,
					"target":{
						"node":5,
						"path":"translation"
					}
				},
				{
					"sampler":19,
					"target":{
						"node":5,
						"path":"rotation"
					}
				},
				{
					"sampler":20,
					"target":{
						"node":5,
						"path":"scale"
					}
				},
				{
					"sampler":21,
					"target":{
						"node":4,
						"path":"translation"
					}
				},
				{
					"sampler":22,
					"target":{
						"node":4,
						"path":"rotation"
					}
				},
				{
					"sampler":23,
					"target":{
						"node":4,
						"path":"scale"
					}
				},
				{
					"sampler":24,
					"target":{
						"node":3,
						"path":"translation"
					}
				},
				{
					"sampler":25,
					"target":{
						"node":3,
						"path":"rotation"
					}
				},
				{
					"sampler":26,
					"target":{
						"node":3,
						"path":"scale"
					}
				},
				{
					"sampler":27,
					"target":{
						"node":10,
						"path":"translation"
					}
				},
				{
					"sampler":28,
					"target":{
						"node":10,
						"path":"rotation"
					}
				},
				{
					"sampler":29,
					"target":{
						"node":10,
						"path":"scale"
					}
				},
				{
					"sampler":30,
					"target":{
						"node":9,
						"path":"translation"
					}
				},
				{
					"sampler":31,
					"target":{
						"node":9,
						"path":"rotation"
					}
				},
				{
					"sampler":32,
					"target":{
						"node":9,
						"path":"scale"
					}
				},
				{
					"sampler":33,
					"target":{
						"node":11,
						"path":"translation"
					}
				},
				{
					"sampler":34,
					"target":{
						"node":11,
						"path":"rotation"
					}
				},
				{
					"sampler":35,
					"target":{
						"node":11,
						"path":"scale"
					}
				}
			],
			"name":"Gentle_Swim",
			"samplers":[
				{
					"input":7,
					"interpolation":"STEP",
					"output":8
				},
				{
					"input":7,
					"interpolation":"STEP",
					"output":9
				},
				{
					"input":7,
					"interpolation":"STEP",
					"output":10
				},
				{
					"input":7,
					"interpolation":"STEP",
					"output":11
				},
				{
					"input":7,
					"interpolation":"STEP",
					"output":12
				},
				{
					"input":7,
					"interpolation":"STEP",
					"output":13
				},
				{
					"input":7,
					"interpolation":"STEP",
					"output":14
				},
				{
					"input":7,
					"interpolation":"STEP",
					"output":15
				},
				{
					"input":7,
					"interpolation":"STEP",
					"output":16
				},
				{
					"input":7,
					"interpolation":"STEP",
					"output":17
				},
				{
					"input":7,
					"interpolation":"STEP",
					"output":18
				},
				{
					"input":7,
					"interpolation":"STEP",
					"output":19
				},
				{
					"input":7,
					"interpolation":"STEP",
					"output":20
				},
				{
					"input":7,
					"interpolation":"STEP",
					"output":21
				},
				{
					"input":7,
					"interpolation":"STEP",
					"output":22
				},
				{
					"input":7,
					"interpolation":"STEP",
					"output":23
				},
				{
					"input":7,
					"interpolation":"STEP",
					"output":24
				},
				{
					"input":7,
					"interpolation":"STEP",
					"output":25
				},
				{
					"input":7,
					"interpolation":"STEP",
					"output":26
				},
				{
					"input":27,
					"interpolation":"LINEAR",
					"output":28
				},
				{
					"input":7,
					"interpolation":"STEP",
					"output":29
				},
				{
					"input":7,
					"interpolation":"STEP",
					"output":30
				},
				{
					"input":27,
					"interpolation":"LINEAR",
					"output":31
				},
				{
					"input":7,
					"interpolation":"STEP",
					"output":32
				},
				{
					"input":7,
					"interpolation":"STEP",
					"output":33
				},
				{
					"input":27,
					"interpolation":"LINEAR",
					"output":34
				},
				{
					"input":7,
					"interpolation":"STEP",
					"output":35
				},
				{
					"input":27,
					"interpolation":"LINEAR",
					"output":36
				},
				{
					"input":7,
					"interpolation":"STEP",
					"output":37
				},
				{
					"input":7,
					"interpolation":"STEP",
					"output":38
				},
				{
					"input":7,
					"interpolation":"STEP",
					"output":39
				},
				{
					"input":7,
					"interpolation":"STEP",
					"output":40
				},
				{
					"input":7,
					"interpolation":"STEP",
					"output":41
				},
				{
					"input":7,
					"interpolation":"STEP",
					"output":42
				},
				{
					"input":7,
					"interpolation":"STEP",
					"output":43
				},
				{
					"input":7,
					"interpolation":"STEP",
					"output":44
				}
			]
		}
	],
	"materials":[
		{
			"doubleSided":true,
			"name":"Whale",
			"pbrMetallicRoughness":{
				"baseColorFactor":[
					0.0259246826171875,
					0.1619873046875,
					0.5087890625,
					1
				],
				"metallicFactor":0,
				"roughnessFactor":0.9585987329483032
			}
		}
	],
	"meshes":[
		{
			"name":"Circle.002",
			"primitives":[
				{
					"attributes":{
						"POSITION":0,
						"NORMAL":1,
						"TEXCOORD_0":2,
						"JOINTS_0":3,
						"WEIGHTS_0":4
					},
					"indices":5,
					"material":0
				}
			]
		}
	],
	"skins":[
		{
			"inverseBindMatrices":6,
			"joints":[
				8,
				2,
				1,
				0,
				7,
				6,
				5,
				4,
				3,
				10,
				9,
				11
			],
			"name":"Whale_Armature"
		}
	],
	"accessors":[
		{
			"bufferView":0,
			"componentType":5126,
			"count":944,
			"max":[
				12.709270477294922,
				4.065901279449463,
				2.7185747623443604
			],
			"min":[
				-11.59301471710205,
				-2.4681782722473145,
				-2.71858286857605
			],
			"type":"VEC3"
		},
		{
			"bufferView":1,
			"componentType":5126,
			"count":944,
			"type":"VEC3"
		},
		{
			"bufferView":2,
			"componentType":5126,
			"count":944,
			"type":"VEC2"
		},
		{
			"bufferView":3,
			"componentType":5121,
			"count":944,
			"type":"VEC4"
		},
		{
			"bufferView":4,
			"componentType":5126,
			"count":944,
			"type":"VEC4"
		},
		{
			"bufferView":5,
			"componentType":5123,
			"count":5148,
			"type":"SCALAR"
		},
		{
			"bufferView":6,
			"componentType":5126,
			"count":12,
			"type":"MAT4"
		},
		{
			"bufferView":7,
			"componentType":5126,
			"count":2,
			"max":[
				4.958333333333333
			],
			"min":[
				0.041666666666666664
			],
			"type":"SCALAR"
		},
		{
			"bufferView":8,
			"componentType":5126,
			"count":2,
			"type":"VEC3"
		},
		{
			"bufferView":9,
			"componentType":5126,
			"count":2,
			"type":"VEC4"
		},
		{
			"bufferView":10,
			"componentType":5126,
			"count":2,
			"type":"VEC3"
		},
		{
			"bufferView":11,
			"componentType":5126,
			"count":2,
			"type":"VEC3"
		},
		{
			"bufferView":12,
			"componentType":5126,
			"count":2,
			"type":"VEC4"
		},
		{
			"bufferView":13,
			"componentType":5126,
			"count":2,
			"type":"VEC3"
		},
		{
			"bufferView":14,
			"componentType":5126,
			"count":2,
			"type":"VEC3"
		},
		{
			"bufferView":15,
			"componentType":5126,
			"count":2,
			"type":"VEC4"
		},
		{
			"bufferView":16,
			"componentType":5126,
			"count":2,
			"type":"VEC3"
		},
		{
			"bufferView":17,
			"componentType":5126,
			"count":2,
			"type":"VEC3"
		},
		{
			"bufferView":18,
			"componentType":5126,
			"count":2,
			"type":"VEC4"
		},
		{
			"bufferView":19,
			"componentType":5126,
			"count":2,
			"type":"VEC3"
		},
		{
			"bufferView":20,
			"componentType":5126,
			"count":2,
			"type":"VEC3"
		},
		{
			"bufferView":21,
			"componentType":5126,
			"count":2,
			"type":"VEC4"
		},
		{
			"bufferView":22,
			"componentType":5126,
			"count":2,
			"type":"VEC3"
		},
		{
			"bufferView":23,
			"componentType":5126,
			"count":2,
			"type":"VEC3"
		},
		{
			"bufferView":24,
			"componentType":5126,
			"count":2,
			"type":"VEC4"
		},
		{
			"bufferView":25,
			"componentType":5126,
			"count":2,
			"type":"VEC3"
		},
		{
			"bufferView":26,
			"componentType":5126,
			"count":2,
			"type":"VEC3"
		},
		{
			"bufferView":27,
			"componentType":5126,
			"count":119,
			"max":[
				4.958333333333333
			],
			"min":[
				0.041666666666666664
			],
			"type":"SCALAR"
		},
		{
			"bufferView":28,
			"componentType":5126,
			"count":119,
			"type":"VEC4"
		},
		{
			"bufferView":29,
			"componentType":5126,
			"count":2,
			"type":"VEC3"
		},
		{
			"bufferView":30,
			"componentType":5126,
			"count":2,
			"type":"VEC3"
		},
		{
			"bufferView":31,
			"componentType":5126,
			"count":119,
			"type":"VEC4"
		},
		{
			"bufferView":32,
			"componentType":5126,
			"count":2,
			"type":"VEC3"
		},
		{
			"bufferView":33,
			"componentType":5126,
			"count":2,
			"type":"VEC3"
		},
		{
			"bufferView":34,
			"componentType":5126,
			"count":119,
			"type":"VEC4"
		},
		{
			"bufferView":35,
			"componentType":5126,
			"count":2,
			"type":"VEC3"
		},
		{
			"bufferView":36,
			"componentType":5126,
			"count":119,
			"type":"VEC3"
		},
		{
			"bufferView":37,
			"componentType":5126,
			"count":2,
			"type":"VEC4"
		},
		{
			"bufferView":38,
			"componentType":5126,
			"count":2,
			"type":"VEC3"
		},
		{
			"bufferView":39,
			"componentType":5126,
			"count":2,
			"type":"VEC3"
		},
		{
			"bufferView":40,
			"componentType":5126,
			"count":2,
			"type":"VEC4"
		},
		{
			"bufferView":41,
			"componentType":5126,
			"count":2,
			"type":"VEC3"
		},
		{
			"bufferView":42,
			"componentType":5126,
			"count":2,
			"type":"VEC3"
		},
		{
			"bufferView":43,
			"componentType":5126,
			"count":2,
			"type":"VEC4"
		},
		{
			"bufferView":44,
			"componentType":5126,
			"count":2,
			"type":"VEC3"
		}
	],
	"bufferViews":[
		{
			"buffer":0,
			"byteLength":11328,
			"byteOffset":0,
			"target":34962
		},
		{
			"buffer":0,
			"byteLength":11328,
			"byteOffset":11328,
			"target":34962
		},
		{
			"buffer":0,
			"byteLength":7552,
			"byteOffset":22656,
			"target":34962
		},
		{
			"buffer":0,
			"byteLength":3776,
			"byteOffset":30208,
			"target":34962
		},
		{
			"buffer":0,
			"byteLength":15104,
			"byteOffset":33984,
			"target":34962
		},
		{
			"buffer":0,
			"byteLength":10296,
			"byteOffset":49088,
			"target":34963
		},
		{
			"buffer":0,
			"byteLength":768,
			"byteOffset":59384
		},
		{
			"buffer":0,
			"byteLength":8,
			"byteOffset":60152
		},
		{
			"buffer":0,
			"byteLength":24,
			"byteOffset":60160
		},
		{
			"buffer":0,
			"byteLength":32,
			"byteOffset":60184
		},
		{
			"buffer":0,
			"byteLength":24,
			"byteOffset":60216
		},
		{
			"buffer":0,
			"byteLength":24,
			"byteOffset":60240
		},
		{
			"buffer":0,
			"byteLength":32,
			"byteOffset":60264
		},
		{
			"buffer":0,
			"byteLength":24,
			"byteOffset":60296
		},
		{
			"buffer":0,
			"byteLength":24,
			"byteOffset":60320
		},
		{
			"buffer":0,
			"byteLength":32,
			"byteOffset":60344
		},
		{
			"buffer":0,
			"byteLength":24,
			"byteOffset":60376
		},
		{
			"buffer":0,
			"byteLength":24,
			"byteOffset":60400
		},
		{
			"buffer":0,
			"byteLength":32,
			"byteOffset":60424
		},
		{
			"buffer":0,
			"byteLength":24,
			"byteOffset":60456
		},
		{
			"buffer":0,
			"byteLength":24,
			"byteOffset":60480
		},
		{
			"buffer":0,
			"byteLength":32,
			"byteOffset":60504
		},
		{
			"buffer":0,
			"byteLength":24,
			"byteOffset":60536
		},
		{
			"buffer":0,
			"byteLength":24,
			"byteOffset":60560
		},
		{
			"buffer":0,
			"byteLength":32,
			"byteOffset":60584
		},
		{
			"buffer":0,
			"byteLength":24,
			"byteOffset":60616
		},
		{
			"buffer":0,
			"byteLength":24,
			"byteOffset":60640
		},
		{
			"buffer":0,
			"byteLength":476,
			"byteOffset":60664
		},
		{
			"buffer":0,
			"byteLength":1904,
			"byteOffset":61140
		},
		{
			"buffer":0,
			"byteLength":24,
			"byteOffset":63044
		},
		{
			"buffer":0,
			"byteLength":24,
			"byteOffset":63068
		},
		{
			"buffer":0,
			"byteLength":1904,
			"byteOffset":63092
		},
		{
			"buffer":0,
			"byteLength":24,
			"byteOffset":64996
		},
		{
			"buffer":0,
			"byteLength":24,
			"byteOffset":65020
		},
		{
			"buffer":0,
			"byteLength":1904,
			"byteOffset":65044
		},
		{
			"buffer":0,
			"byteLength":24,
			"byteOffset":66948
		},
		{
			"buffer":0,
			"byteLength":1428,
			"byteOffset":66972
		},
		{
			"buffer":0,
			"byteLength":32,
			"byteOffset":68400
		},
		{
			"buffer":0,
			"byteLength":24,
			"byteOffset":68432
		},
		{
			"buffer":0,
			"byteLength":24,
			"byteOffset":68456
		},
		{
			"buffer":0,
			"byteLength":32,
			"byteOffset":68480
		},
		{
			"buffer":0,
			"byteLength":24,
			"byteOffset":68512
		},
		{
			"buffer":0,
			"byteLength":24,
			"byteOffset":68536
		},
		{
			"buffer":0,
			"byteLength":32,
			"byteOffset":68560
		},
		{
			"buffer":0,
			"byteLength":24,
			"byteOffset":68592
		}
	],
	"buffers":[
		{
			"byteLength":68616,
			"uri":"underwater_whale_anim.bin"
		}
	]
}
