{
	"asset":{
		"generator":"Khronos glTF Blender I/O v5.0.21",
		"version":"2.0"
	},
	"extensionsUsed":[
		"KHR_materials_emissive_strength",
		"KHR_lights_punctual"
	],
	"extensionsRequired":[
		"KHR_lights_punctual"
	],
	"extensions":{
		"KHR_lights_punctual":{
			"lights":[
				{
					"color":[
						1,
						0,
						0
					],
					"intensity":543514.1306588226,
					"spot":{
						"innerConeAngle":0.07417649053176367,
						"outerConeAngle":0.0872664600610733
					},
					"type":"spot",
					"name":"Spot"
				}
			]
		}
	},
	"scene":0,
	"scenes":[
		{
			"name":"Scene",
			"nodes":[
				11
			]
		}
	],
	"nodes":[
		{
			"mesh":0,
			"name":"Cube.009",
			"rotation":[
				0,
				-0.7071067094802856,
				0,
				0.7071068286895752
			],
			"translation":[
				0,
				-0.29768526554107666,
				1.6889708042144775
			]
		},
		{
			"mesh":0,
			"name":"Cube.010",
			"rotation":[
				0,
				-0.7071067094802856,
				0,
				0.7071068286895752
			],
			"translation":[
				0,
				0.29768502712249756,
				1.6889708042144775
			]
		},
		{
			"mesh":1,
			"name":"Cylinder.004",
			"rotation":[
				0.7071068286895752,
				0,
				0,
				0.7071068286895752
			],
			"translation":[
				0.3086645007133484,
				-0.27996620535850525,
				-0.04665764421224594
			]
		},
		{
			"mesh":2,
			"name":"Cylinder.005",
			"rotation":[
				0.7071068286895752,
				0,
				0,
				0.7071068286895752
			],
			"translation":[
				-0.2783806622028351,
				-0.27841976284980774,
				0.076387420296669
			]
		},
		{
			"mesh":3,
			"name":"Plane.064",
			"rotation":[
				-0.7071068286895752,
				0,
				-0.7071067094802856,
				1.3767875373105198e-07
			],
			"translation":[
				0,
				0,
				1.3979835510253906
			]
		},
		{
			"mesh":4,
			"name":"Plane.065",
			"rotation":[
				0.5,
				-0.5,
				0.5,
				0.5
			],
			"translation":[
				0,
				0,
				1.3979835510253906
			]
		},
		{
			"mesh":5,
			"name":"Propeller.003",
			"rotation":[
				-0.4093877971172333,
				0.5765429139137268,
				-0.5765430331230164,
				0.40938740968704224
			],
			"translation":[
				0.3166152834892273,
				-0.28014761209487915,
				0.07795847207307816
			]
		},
		{
			"mesh":6,
			"name":"Propeller.004",
			"rotation":[
				-0.266998291015625,
				0.6547608375549316,
				-0.6547611951828003,
				0.2669979929924011
			],
			"translation":[
				-0.31661513447761536,
				-0.280147522687912,
				0.07795842736959457
			]
		},
		{
			"extensions":{
				"KHR_lights_punctual":{
					"light":0
				}
			},
			"name":"Spot",
			"rotation":[
				0,
				0,
				-0.7071068286895752,
				0.7071068286895752
			],
			"scale":[
				0.07396311312913895,
				0.07396311312913895,
				0.07396311312913895
			],
			"translation":[
				0.002450109925121069,
				0.00863698124885559,
				-0.15734487771987915
			]
		},
		{
			"children":[
				8
			],
			"mesh":7,
			"name":"SEARCH_LIGHT",
			"translation":[
				0,
				-0.3480287790298462,
				-0.7832372188568115
			]
		},
		{
			"mesh":8,
			"name":"THING",
			"translation":[
				0,
				-0.29691314697265625,
				-0.6800531148910522
			]
		},
		{
			"children":[
				0,
				1,
				2,
				3,
				4,
				5,
				6,
				7,
				9,
				10
			],
			"mesh":9,
			"name":"Circle",
			"scale":[
				13.520252227783203,
				13.520252227783203,
				13.520252227783203
			]
		}
	],
	"materials":[
		{
			"doubleSided":true,
			"emissiveFactor":[
				1,
				0.010141836479306221,
				0.04992306977510452
			],
			"extensions":{
				"KHR_materials_emissive_strength":{
					"emissiveStrength":2
				}
			},
			"name":"Emission_Red.001",
			"pbrMetallicRoughness":{
				"baseColorFactor":[
					0,
					0,
					0,
					1
				]
			}
		},
		{
			"doubleSided":true,
			"name":"Silver_Metal.001",
			"pbrMetallicRoughness":{
				"baseColorFactor":[
					0.42452752590179443,
					0.42452752590179443,
					0.42452752590179443,
					1
				],
				"roughnessFactor":0.30573248863220215
			}
		},
		{
			"doubleSided":true,
			"name":"Black_Metal.002",
			"pbrMetallicRoughness":{
				"baseColorFactor":[
					0.02380399778485298,
					0.02380399778485298,
					0.02380399778485298,
					1
				],
				"roughnessFactor":0.5
			}
		},
		{
			"doubleSided":true,
			"name":"Black_Metal",
			"pbrMetallicRoughness":{
				"baseColorFactor":[
					0.02380399778485298,
					0.02380399778485298,
					0.02380399778485298,
					1
				],
				"roughnessFactor":0.5
			}
		},
		{
			"doubleSided":true,
			"emissiveFactor":[
				1,
				1,
				1
			],
			"extensions":{
				"KHR_materials_emissive_strength":{
					"emissiveStrength":68.99999237060547
				}
			},
			"name":"Searchlight",
			"pbrMetallicRoughness":{
				"baseColorFactor":[
					0,
					0,
					0,
					1
				]
			}
		},
		{
			"doubleSided":true,
			"name":"Silver_Metal",
			"pbrMetallicRoughness":{
				"baseColorFactor":[
					0.42452752590179443,
					0.42452752590179443,
					0.42452752590179443,
					1
				],
				"roughnessFactor":0.30573248863220215
			}
		}
	],
	"meshes":[
		{
			"name":"Cube.011",
			"primitives":[
				{
					"attributes":{
						"POSITION":0,
						"NORMAL":1,
						"TEXCOORD_0":2,
						"TANGENT":3
					},
					"indices":4,
					"material":0
				}
			]
		},
		{
			"name":"Cylinder.019",
			"primitives":[
				{
					"attributes":{
						"POSITION":5,
						"NORMAL":6,
						"TEXCOORD_0":7
					},
					"indices":8,
					"material":1
				},
				{
					"attributes":{
						"POSITION":9,
						"NORMAL":10,
						"TEXCOORD_0":11
					},
					"indices":12,
					"material":2
				},
				{
					"attributes":{
						"POSITION":13,
						"NORMAL":14,
						"TEXCOORD_0":15
					},
					"indices":16,
					"material":0
				}
			]
		},
		{
			"name":"Cylinder.020",
			"primitives":[
				{
					"attributes":{
						"POSITION":17,
						"NORMAL":18,
						"TEXCOORD_0":19
					},
					"indices":20,
					"material":1
				},
				{
					"attributes":{
						"POSITION":21,
						"NORMAL":22,
						"TEXCOORD_0":23
					},
					"indices":24,
					"material":2
				},
				{
					"attributes":{
						"POSITION":25,
						"NORMAL":26,
						"TEXCOORD_0":27
					},
					"indices":28,
					"material":0
				}
			]
		},
		{
			"name":"Plane.132",
			"primitives":[
				{
					"attributes":{
						"POSITION":29,
						"NORMAL":30,
						"TEXCOORD_0":31,
						"TANGENT":32
					},
					"indices":33,
					"material":1
				}
			]
		},
		{
			"name":"Plane.134",
			"primitives":[
				{
					"attributes":{
						"POSITION":34,
						"NORMAL":35,
						"TEXCOORD_0":36,
						"TANGENT":37
					},
					"indices":33,
					"material":1
				}
			]
		},
		{
			"name":"Plane.130",
			"primitives":[
				{
					"attributes":{
						"POSITION":38,
						"NORMAL":39,
						"TEXCOORD_0":40
					},
					"indices":41,
					"material":1
				}
			]
		},
		{
			"name":"Plane.131",
			"primitives":[
				{
					"attributes":{
						"POSITION":42,
						"NORMAL":43,
						"TEXCOORD_0":44
					},
					"indices":45,
					"material":1
				}
			]
		},
		{
			"name":"Cube.009",
			"primitives":[
				{
					"attributes":{
						"POSITION":46,
						"NORMAL":47,
						"TEXCOORD_0":48
					},
					"indices":49,
					"material":3
				},
				{
					"attributes":{
						"POSITION":50,
						"NORMAL":51,
						"TEXCOORD_0":52
					},
					"indices":53,
					"material":4
				}
			]
		},
		{
			"name":"Cube",
			"primitives":[
				{
					"attributes":{
						"POSITION":54,
						"NORMAL":55,
						"TEXCOORD_0":56
					},
					"indices":57,
					"material":5
				},
				{
					"attributes":{
						"POSITION":58,
						"NORMAL":59,
						"TEXCOORD_0":60
					},
					"indices":61,
					"material":3
				}
			]
		},
		{
			"name":"Circle.001",
			"primitives":[
				{
					"attributes":{
						"POSITION":62,
						"NORMAL":63,
						"TEXCOORD_0":64
					},
					"indices":65,
					"material":5
				}
			]
		}
	],
	"accessors":[
		{
			"bufferView":0,
			"componentType":5126,
			"count":24,
			"max":[
				0.01800275593996048,
				0.01800275593996048,
				0.01800275593996048
			],
			"min":[
				-0.01800275593996048,
				-0.01800275593996048,
				-0.01800275593996048
			],
			"type":"VEC3"
		},
		{
			"bufferView":1,
			"componentType":5126,
			"count":24,
			"type":"VEC3"
		},
		{
			"bufferView":2,
			"componentType":5126,
			"count":24,
			"type":"VEC2"
		},
		{
			"bufferView":3,
			"componentType":5126,
			"count":24,
			"type":"VEC4"
		},
		{
			"bufferView":4,
			"componentType":5123,
			"count":36,
			"type":"SCALAR"
		},
		{
			"bufferView":5,
			"componentType":5126,
			"count":71,
			"max":[
				0.04752779006958008,
				0.12304510176181793,
				0.03803073614835739
			],
			"min":[
				-0.03162640333175659,
				-0.08643422275781631,
				-0.04112345725297928
			],
			"type":"VEC3"
		},
		{
			"bufferView":6,
			"componentType":5126,
			"count":71,
			"type":"VEC3"
		},
		{
			"bufferView":7,
			"componentType":5126,
			"count":71,
			"type":"VEC2"
		},
		{
			"bufferView":8,
			"componentType":5123,
			"count":258,
			"type":"SCALAR"
		},
		{
			"bufferView":9,
			"componentType":5126,
			"count":50,
			"max":[
				0.04752779006958008,
				0.12304510176181793,
				0.03803073614835739
			],
			"min":[
				-0.11245977878570557,
				-0.012276850640773773,
				-0.0764153003692627
			],
			"type":"VEC3"
		},
		{
			"bufferView":10,
			"componentType":5126,
			"count":50,
			"type":"VEC3"
		},
		{
			"bufferView":11,
			"componentType":5126,
			"count":50,
			"type":"VEC2"
		},
		{
			"bufferView":12,
			"componentType":5123,
			"count":102,
			"type":"SCALAR"
		},
		{
			"bufferView":13,
			"componentType":5126,
			"count":24,
			"max":[
				0.015500783920288086,
				-0.03244229406118393,
				0.053054988384246826
			],
			"min":[
				0.00047653913497924805,
				-0.04746653884649277,
				0.03803073614835739
			],
			"type":"VEC3"
		},
		{
			"bufferView":14,
			"componentType":5126,
			"count":24,
			"type":"VEC3"
		},
		{
			"bufferView":15,
			"componentType":5126,
			"count":24,
			"type":"VEC2"
		},
		{
			"bufferView":16,
			"componentType":5123,
			"count":36,
			"type":"SCALAR"
		},
		{
			"bufferView":17,
			"componentType":5126,
			"count":71,
			"max":[
				0.001342662493698299,
				-1.6712802253238124e-09,
				0.039577096700668335
			],
			"min":[
				-0.07781153172254562,
				-0.20947931706905365,
				-0.039577096700668335
			],
			"type":"VEC3"
		},
		{
			"bufferView":18,
			"componentType":5126,
			"count":71,
			"type":"VEC3"
		},
		{
			"bufferView":19,
			"componentType":5126,
			"count":71,
			"type":"VEC2"
		},
		{
			"bufferView":20,
			"componentType":5123,
			"count":258,
			"type":"SCALAR"
		},
		{
			"bufferView":21,
			"componentType":5126,
			"count":50,
			"max":[
				0.08217602968215942,
				-1.6712802253238124e-09,
				0.039577096700668335
			],
			"min":[
				-0.07781153172254562,
				-0.1353219449520111,
				-0.07486893981695175
			],
			"type":"VEC3"
		},
		{
			"bufferView":22,
			"componentType":5126,
			"count":50,
			"type":"VEC3"
		},
		{
			"bufferView":23,
			"componentType":5126,
			"count":50,
			"type":"VEC2"
		},
		{
			"bufferView":24,
			"componentType":5123,
			"count":102,
			"type":"SCALAR"
		},
		{
			"bufferView":25,
			"componentType":5126,
			"count":24,
			"max":[
				-0.030760254710912704,
				-0.15548738837242126,
				0.05460134893655777
			],
			"min":[
				-0.04578450694680214,
				-0.1705116331577301,
				0.039577096700668335
			],
			"type":"VEC3"
		},
		{
			"bufferView":26,
			"componentType":5126,
			"count":24,
			"type":"VEC3"
		},
		{
			"bufferView":27,
			"componentType":5126,
			"count":24,
			"type":"VEC2"
		},
		{
			"bufferView":28,
			"componentType":5123,
			"count":36,
			"type":"SCALAR"
		},
		{
			"bufferView":29,
			"componentType":5126,
			"count":56,
			"max":[
				0.3202284872531891,
				0.01180721540004015,
				0.30279815196990967
			],
			"min":[
				-0.4803706407546997,
				-0.01180721540004015,
				-0.30279815196990967
			],
			"type":"VEC3"
		},
		{
			"bufferView":30,
			"componentType":5126,
			"count":56,
			"type":"VEC3"
		},
		{
			"bufferView":31,
			"componentType":5126,
			"count":56,
			"type":"VEC2"
		},
		{
			"bufferView":32,
			"componentType":5126,
			"count":56,
			"type":"VEC4"
		},
		{
			"bufferView":33,
			"componentType":5123,
			"count":108,
			"type":"SCALAR"
		},
		{
			"bufferView":34,
			"componentType":5126,
			"count":56,
			"max":[
				0.3202284872531891,
				0.011807202361524105,
				0.27968236804008484
			],
			"min":[
				-0.4803706407546997,
				-0.011807202361524105,
				-0.27968236804008484
			],
			"type":"VEC3"
		},
		{
			"bufferView":35,
			"componentType":5126,
			"count":56,
			"type":"VEC3"
		},
		{
			"bufferView":36,
			"componentType":5126,
			"count":56,
			"type":"VEC2"
		},
		{
			"bufferView":37,
			"componentType":5126,
			"count":56,
			"type":"VEC4"
		},
		{
			"bufferView":38,
			"componentType":5126,
			"count":108,
			"max":[
				0.0534416139125824,
				0.0015710663283243775,
				0.08302447199821472
			],
			"min":[
				-0.09248530864715576,
				-0.0015710488660261035,
				-0.0811479389667511
			],
			"type":"VEC3"
		},
		{
			"bufferView":39,
			"componentType":5126,
			"count":108,
			"type":"VEC3"
		},
		{
			"bufferView":40,
			"componentType":5126,
			"count":108,
			"type":"VEC2"
		},
		{
			"bufferView":41,
			"componentType":5123,
			"count":180,
			"type":"SCALAR"
		},
		{
			"bufferView":42,
			"componentType":5126,
			"count":108,
			"max":[
				0.08210605382919312,
				0.0015710062580183148,
				0.051911719143390656
			],
			"min":[
				-0.08210614323616028,
				-0.0015710080042481422,
				-0.09241651743650436
			],
			"type":"VEC3"
		},
		{
			"bufferView":43,
			"componentType":5126,
			"count":108,
			"type":"VEC3"
		},
		{
			"bufferView":44,
			"componentType":5126,
			"count":108,
			"type":"VEC2"
		},
		{
			"bufferView":45,
			"componentType":5123,
			"count":180,
			"type":"SCALAR"
		},
		{
			"bufferView":46,
			"componentType":5126,
			"count":90,
			"max":[
				0.03819049149751663,
				0.03280506283044815,
				7.283878034058944e-08
			],
			"min":[
				-0.038190487772226334,
				-0.02523288130760193,
				-0.12801073491573334
			],
			"type":"VEC3"
		},
		{
			"bufferView":47,
			"componentType":5126,
			"count":90,
			"type":"VEC3"
		},
		{
			"bufferView":48,
			"componentType":5126,
			"count":90,
			"type":"VEC2"
		},
		{
			"bufferView":49,
			"componentType":5123,
			"count":186,
			"type":"SCALAR"
		},
		{
			"bufferView":50,
			"componentType":5126,
			"count":8,
			"max":[
				0.023755474016070366,
				0.027494125068187714,
				-0.12792441248893738
			],
			"min":[
				-0.023755501955747604,
				-0.020016789436340332,
				-0.12800219655036926
			],
			"type":"VEC3"
		},
		{
			"bufferView":51,
			"componentType":5126,
			"count":8,
			"type":"VEC3"
		},
		{
			"bufferView":52,
			"componentType":5126,
			"count":8,
			"type":"VEC2"
		},
		{
			"bufferView":53,
			"componentType":5123,
			"count":18,
			"type":"SCALAR"
		},
		{
			"bufferView":54,
			"componentType":5126,
			"count":64,
			"max":[
				0.10608364641666412,
				0.0654250904917717,
				0.1623506098985672
			],
			"min":[
				-0.10608363896608353,
				-0.0654250904917717,
				-0.162350594997406
			],
			"type":"VEC3"
		},
		{
			"bufferView":55,
			"componentType":5126,
			"count":64,
			"type":"VEC3"
		},
		{
			"bufferView":56,
			"componentType":5126,
			"count":64,
			"type":"VEC2"
		},
		{
			"bufferView":57,
			"componentType":5123,
			"count":132,
			"type":"SCALAR"
		},
		{
			"bufferView":58,
			"componentType":5126,
			"count":24,
			"max":[
				0.10608364641666412,
				0.009887801483273506,
				0.1623506098985672
			],
			"min":[
				-0.10608363896608353,
				-0.04549560323357582,
				-0.162350594997406
			],
			"type":"VEC3"
		},
		{
			"bufferView":59,
			"componentType":5126,
			"count":24,
			"type":"VEC3"
		},
		{
			"bufferView":60,
			"componentType":5126,
			"count":24,
			"type":"VEC2"
		},
		{
			"bufferView":61,
			"componentType":5123,
			"count":48,
			"type":"SCALAR"
		},
		{
			"bufferView":62,
			"componentType":5126,
			"count":928,
			"max":[
				0.30480003356933594,
				0.30480003356933594,
				1.8275656700134277
			],
			"min":[
				-0.3048000633716583,
				-0.30480000376701355,
				-1.7055824995040894
			],
			"type":"VEC3"
		},
		{
			"bufferView":63,
			"componentType":5126,
			"count":928,
			"type":"VEC3"
		},
		{
			"bufferView":64,
			"componentType":5126,
			"count":928,
			"type":"VEC2"
		},
		{
			"bufferView":65,
			"componentType":5123,
			"count":2772,
			"type":"SCALAR"
		}
	],
	"bufferViews":[
		{
			"buffer":0,
			"byteLength":288,
			"byteOffset":0,
			"target":34962
		},
		{
			"buffer":0,
			"byteLength":288,
			"byteOffset":288,
			"target":34962
		},
		{
			"buffer":0,
			"byteLength":192,
			"byteOffset":576,
			"target":34962
		},
		{
			"buffer":0,
			"byteLength":384,
			"byteOffset":768,
			"target":34962
		},
		{
			"buffer":0,
			"byteLength":72,
			"byteOffset":1152,
			"target":34963
		},
		{
			"buffer":0,
			"byteLength":852,
			"byteOffset":1224,
			"target":34962
		},
		{
			"buffer":0,
			"byteLength":852,
			"byteOffset":2076,
			"target":34962
		},
		{
			"buffer":0,
			"byteLength":568,
			"byteOffset":2928,
			"target":34962
		},
		{
			"buffer":0,
			"byteLength":516,
			"byteOffset":3496,
			"target":34963
		},
		{
			"buffer":0,
			"byteLength":600,
			"byteOffset":4012,
			"target":34962
		},
		{
			"buffer":0,
			"byteLength":600,
			"byteOffset":4612,
			"target":34962
		},
		{
			"buffer":0,
			"byteLength":400,
			"byteOffset":5212,
			"target":34962
		},
		{
			"buffer":0,
			"byteLength":204,
			"byteOffset":5612,
			"target":34963
		},
		{
			"buffer":0,
			"byteLength":288,
			"byteOffset":5816,
			"target":34962
		},
		{
			"buffer":0,
			"byteLength":288,
			"byteOffset":6104,
			"target":34962
		},
		{
			"buffer":0,
			"byteLength":192,
			"byteOffset":6392,
			"target":34962
		},
		{
			"buffer":0,
			"byteLength":72,
			"byteOffset":6584,
			"target":34963
		},
		{
			"buffer":0,
			"byteLength":852,
			"byteOffset":6656,
			"target":34962
		},
		{
			"buffer":0,
			"byteLength":852,
			"byteOffset":7508,
			"target":34962
		},
		{
			"buffer":0,
			"byteLength":568,
			"byteOffset":8360,
			"target":34962
		},
		{
			"buffer":0,
			"byteLength":516,
			"byteOffset":8928,
			"target":34963
		},
		{
			"buffer":0,
			"byteLength":600,
			"byteOffset":9444,
			"target":34962
		},
		{
			"buffer":0,
			"byteLength":600,
			"byteOffset":10044,
			"target":34962
		},
		{
			"buffer":0,
			"byteLength":400,
			"byteOffset":10644,
			"target":34962
		},
		{
			"buffer":0,
			"byteLength":204,
			"byteOffset":11044,
			"target":34963
		},
		{
			"buffer":0,
			"byteLength":288,
			"byteOffset":11248,
			"target":34962
		},
		{
			"buffer":0,
			"byteLength":288,
			"byteOffset":11536,
			"target":34962
		},
		{
			"buffer":0,
			"byteLength":192,
			"byteOffset":11824,
			"target":34962
		},
		{
			"buffer":0,
			"byteLength":72,
			"byteOffset":12016,
			"target":34963
		},
		{
			"buffer":0,
			"byteLength":672,
			"byteOffset":12088,
			"target":34962
		},
		{
			"buffer":0,
			"byteLength":672,
			"byteOffset":12760,
			"target":34962
		},
		{
			"buffer":0,
			"byteLength":448,
			"byteOffset":13432,
			"target":34962
		},
		{
			"buffer":0,
			"byteLength":896,
			"byteOffset":13880,
			"target":34962
		},
		{
			"buffer":0,
			"byteLength":216,
			"byteOffset":14776,
			"target":34963
		},
		{
			"buffer":0,
			"byteLength":672,
			"byteOffset":14992,
			"target":34962
		},
		{
			"buffer":0,
			"byteLength":672,
			"byteOffset":15664,
			"target":34962
		},
		{
			"buffer":0,
			"byteLength":448,
			"byteOffset":16336,
			"target":34962
		},
		{
			"buffer":0,
			"byteLength":896,
			"byteOffset":16784,
			"target":34962
		},
		{
			"buffer":0,
			"byteLength":1296,
			"byteOffset":17680,
			"target":34962
		},
		{
			"buffer":0,
			"byteLength":1296,
			"byteOffset":18976,
			"target":34962
		},
		{
			"buffer":0,
			"byteLength":864,
			"byteOffset":20272,
			"target":34962
		},
		{
			"buffer":0,
			"byteLength":360,
			"byteOffset":21136,
			"target":34963
		},
		{
			"buffer":0,
			"byteLength":1296,
			"byteOffset":21496,
			"target":34962
		},
		{
			"buffer":0,
			"byteLength":1296,
			"byteOffset":22792,
			"target":34962
		},
		{
			"buffer":0,
			"byteLength":864,
			"byteOffset":24088,
			"target":34962
		},
		{
			"buffer":0,
			"byteLength":360,
			"byteOffset":24952,
			"target":34963
		},
		{
			"buffer":0,
			"byteLength":1080,
			"byteOffset":25312,
			"target":34962
		},
		{
			"buffer":0,
			"byteLength":1080,
			"byteOffset":26392,
			"target":34962
		},
		{
			"buffer":0,
			"byteLength":720,
			"byteOffset":27472,
			"target":34962
		},
		{
			"buffer":0,
			"byteLength":372,
			"byteOffset":28192,
			"target":34963
		},
		{
			"buffer":0,
			"byteLength":96,
			"byteOffset":28564,
			"target":34962
		},
		{
			"buffer":0,
			"byteLength":96,
			"byteOffset":28660,
			"target":34962
		},
		{
			"buffer":0,
			"byteLength":64,
			"byteOffset":28756,
			"target":34962
		},
		{
			"buffer":0,
			"byteLength":36,
			"byteOffset":28820,
			"target":34963
		},
		{
			"buffer":0,
			"byteLength":768,
			"byteOffset":28856,
			"target":34962
		},
		{
			"buffer":0,
			"byteLength":768,
			"byteOffset":29624,
			"target":34962
		},
		{
			"buffer":0,
			"byteLength":512,
			"byteOffset":30392,
			"target":34962
		},
		{
			"buffer":0,
			"byteLength":264,
			"byteOffset":30904,
			"target":34963
		},
		{
			"buffer":0,
			"byteLength":288,
			"byteOffset":31168,
			"target":34962
		},
		{
			"buffer":0,
			"byteLength":288,
			"byteOffset":31456,
			"target":34962
		},
		{
			"buffer":0,
			"byteLength":192,
			"byteOffset":31744,
			"target":34962
		},
		{
			"buffer":0,
			"byteLength":96,
			"byteOffset":31936,
			"target":34963
		},
		{
			"buffer":0,
			"byteLength":11136,
			"byteOffset":32032,
			"target":34962
		},
		{
			"buffer":0,
			"byteLength":11136,
			"byteOffset":43168,
			"target":34962
		},
		{
			"buffer":0,
			"byteLength":7424,
			"byteOffset":54304,
			"target":34962
		},
		{
			"buffer":0,
			"byteLength":5544,
			"byteOffset":61728,
			"target":34963
		}
	],
	"buffers":[
		{
			"byteLength":67272,
			"uri":"underwater_airship.bin"
		}
	]
}
